M48
; DRILL file {KiCad (6.0.0)} date Sat Jan  8 11:13:23 2022
; FORMAT={-:-/ absolute / inch / decimal}
; #@! TF.CreationDate,2022-01-08T11:13:23+00:00
; #@! TF.GenerationSoftware,Kicad,Pcbnew,(6.0.0)
; #@! TF.FileFunction,Plated,1,2,PTH
FMAT,2
INCH
; #@! TA.AperFunction,Plated,PTH,ComponentDrill
T1C0.0276
; #@! TA.AperFunction,Plated,PTH,ComponentDrill
T2C0.0315
; #@! TA.AperFunction,Plated,PTH,ComponentDrill
T3C0.0394
%
G90
G05
T1
X4.625Y-3.5254
X4.625Y-3.612
X4.625Y-3.6986
X4.625Y-3.8246
X4.825Y-3.5254
X4.825Y-3.612
X4.825Y-3.6986
X4.825Y-3.8246
X5.5Y-3.5254
X5.5Y-3.612
X5.5Y-3.6986
X5.5Y-3.8246
X5.7Y-3.5254
X5.7Y-3.612
X5.7Y-3.6986
X5.7Y-3.8246
T2
X4.1606Y-3.475
X4.2394Y-3.475
X5.0356Y-3.475
X5.1144Y-3.475
X5.9106Y-3.475
X5.9894Y-3.475
T3
X3.75Y-3.226
X3.85Y-3.226
X3.95Y-3.226
X4.0Y-3.7
X4.0Y-3.8
X4.05Y-3.226
X4.15Y-3.226
X4.25Y-3.226
X4.35Y-3.226
X4.6242Y-3.225
X4.7242Y-3.225
X4.8242Y-3.225
X4.9242Y-3.225
X5.0242Y-3.225
X5.1242Y-3.225
X5.2242Y-3.225
X5.4992Y-3.226
X5.5992Y-3.226
X5.6992Y-3.226
X5.7992Y-3.226
X5.8992Y-3.226
X5.9992Y-3.226
X6.0992Y-3.226
T0
M30
