%TF.GenerationSoftware,KiCad,Pcbnew,(6.0.0)*%
%TF.CreationDate,2022-01-08T11:13:19+00:00*%
%TF.ProjectId,Hub,4875622e-6b69-4636-9164-5f7063625858,rev?*%
%TF.SameCoordinates,Original*%
%TF.FileFunction,Copper,L2,Bot*%
%TF.FilePolarity,Positive*%
%FSLAX46Y46*%
G04 Gerber Fmt 4.6, Leading zero omitted, Abs format (unit mm)*
G04 Created by KiCad (PCBNEW (6.0.0)) date 2022-01-08 11:13:19*
%MOMM*%
%LPD*%
G01*
G04 APERTURE LIST*
%TA.AperFunction,ComponentPad*%
%ADD10R,1.700000X1.700000*%
%TD*%
%TA.AperFunction,ComponentPad*%
%ADD11O,1.700000X1.700000*%
%TD*%
%TA.AperFunction,ComponentPad*%
%ADD12C,1.600000*%
%TD*%
%TA.AperFunction,ComponentPad*%
%ADD13C,1.400000*%
%TD*%
%TA.AperFunction,Conductor*%
%ADD14C,0.500000*%
%TD*%
%TA.AperFunction,Conductor*%
%ADD15C,0.250000*%
%TD*%
G04 APERTURE END LIST*
D10*
%TO.P,J4,1,Pin_1*%
%TO.N,VCC*%
X101600000Y-93980000D03*
D11*
%TO.P,J4,2,Pin_2*%
%TO.N,GND*%
X101600000Y-96520000D03*
%TD*%
D10*
%TO.P,J3,1,Pin_1*%
%TO.N,Net-(J3-Pad1)*%
X154920000Y-81940000D03*
D11*
%TO.P,J3,2,Pin_2*%
%TO.N,GND*%
X152380000Y-81940000D03*
%TO.P,J3,3,Pin_3*%
%TO.N,VCC*%
X149840000Y-81940000D03*
%TO.P,J3,4,Pin_4*%
%TO.N,Net-(J3-Pad4)*%
X147300000Y-81940000D03*
%TO.P,J3,5,Pin_5*%
%TO.N,Net-(J3-Pad5)*%
X144760000Y-81940000D03*
%TO.P,J3,6,Pin_6*%
%TO.N,Net-(J3-Pad6)*%
X142220000Y-81940000D03*
%TO.P,J3,7,Pin_7*%
%TO.N,Net-(J3-Pad7)*%
X139680000Y-81940000D03*
%TD*%
D10*
%TO.P,J2,1,Pin_1*%
%TO.N,Net-(J2-Pad1)*%
X132695000Y-81915000D03*
D11*
%TO.P,J2,2,Pin_2*%
%TO.N,GND*%
X130155000Y-81915000D03*
%TO.P,J2,3,Pin_3*%
%TO.N,VCC*%
X127615000Y-81915000D03*
%TO.P,J2,4,Pin_4*%
%TO.N,Net-(J2-Pad4)*%
X125075000Y-81915000D03*
%TO.P,J2,5,Pin_5*%
%TO.N,Net-(J2-Pad5)*%
X122535000Y-81915000D03*
%TO.P,J2,6,Pin_6*%
%TO.N,Net-(J2-Pad6)*%
X119995000Y-81915000D03*
%TO.P,J2,7,Pin_7*%
%TO.N,Net-(J2-Pad7)*%
X117455000Y-81915000D03*
%TD*%
D10*
%TO.P,J1,1,Pin_1*%
%TO.N,unconnected-(J1-Pad1)*%
X110490000Y-81940000D03*
D11*
%TO.P,J1,2,Pin_2*%
%TO.N,GND*%
X107950000Y-81940000D03*
%TO.P,J1,3,Pin_3*%
%TO.N,VCC*%
X105410000Y-81940000D03*
%TO.P,J1,4,Pin_4*%
%TO.N,Net-(J1-Pad4)*%
X102870000Y-81940000D03*
%TO.P,J1,5,Pin_5*%
%TO.N,Net-(J1-Pad5)*%
X100330000Y-81940000D03*
%TO.P,J1,6,Pin_6*%
%TO.N,Net-(J1-Pad6)*%
X97790000Y-81940000D03*
%TO.P,J1,7,Pin_7*%
%TO.N,Net-(J1-Pad7)*%
X95250000Y-81940000D03*
%TD*%
D12*
%TO.P,C2,1*%
%TO.N,VCC*%
X127905000Y-88265000D03*
%TO.P,C2,2*%
%TO.N,GND*%
X129905000Y-88265000D03*
%TD*%
D13*
%TO.P,K1,1*%
%TO.N,Net-(J2-Pad1)*%
X122555000Y-97145000D03*
%TO.P,K1,2*%
%TO.N,Net-(J1-Pad5)*%
X122555000Y-93945000D03*
%TO.P,K1,3*%
%TO.N,Net-(K1-Pad3)*%
X122555000Y-91745000D03*
%TO.P,K1,4*%
%TO.N,Net-(J2-Pad6)*%
X122555000Y-89545000D03*
%TO.P,K1,5*%
%TO.N,Net-(J2-Pad7)*%
X117475000Y-89545000D03*
%TO.P,K1,6*%
%TO.N,Net-(K1-Pad6)*%
X117475000Y-91745000D03*
%TO.P,K1,7*%
%TO.N,Net-(J1-Pad4)*%
X117475000Y-93945000D03*
%TO.P,K1,8*%
%TO.N,GND*%
X117475000Y-97145000D03*
%TD*%
%TO.P,K2,1*%
%TO.N,Net-(J3-Pad1)*%
X144780000Y-97145000D03*
%TO.P,K2,2*%
%TO.N,Net-(J2-Pad5)*%
X144780000Y-93945000D03*
%TO.P,K2,3*%
%TO.N,Net-(K2-Pad3)*%
X144780000Y-91745000D03*
%TO.P,K2,4*%
%TO.N,Net-(J3-Pad6)*%
X144780000Y-89545000D03*
%TO.P,K2,5*%
%TO.N,Net-(J3-Pad7)*%
X139700000Y-89545000D03*
%TO.P,K2,6*%
%TO.N,Net-(K2-Pad6)*%
X139700000Y-91745000D03*
%TO.P,K2,7*%
%TO.N,Net-(J2-Pad4)*%
X139700000Y-93945000D03*
%TO.P,K2,8*%
%TO.N,GND*%
X139700000Y-97145000D03*
%TD*%
D12*
%TO.P,C1,1*%
%TO.N,VCC*%
X105680000Y-88265000D03*
%TO.P,C1,2*%
%TO.N,GND*%
X107680000Y-88265000D03*
%TD*%
%TO.P,C3,1*%
%TO.N,VCC*%
X150130000Y-88265000D03*
%TO.P,C3,2*%
%TO.N,GND*%
X152130000Y-88265000D03*
%TD*%
D14*
%TO.N,VCC*%
X150130000Y-86884000D02*
X150130000Y-88265000D01*
X128270000Y-86360000D02*
X149606000Y-86360000D01*
X149606000Y-86360000D02*
X150130000Y-86884000D01*
X127905000Y-86725000D02*
X128270000Y-86360000D01*
X127905000Y-88265000D02*
X127905000Y-86725000D01*
X104013000Y-88265000D02*
X105680000Y-88265000D01*
X101600000Y-93980000D02*
X101600000Y-90678000D01*
X101600000Y-90678000D02*
X104013000Y-88265000D01*
D15*
%TO.N,Net-(J2-Pad4)*%
X130140000Y-93945000D02*
X139700000Y-93945000D01*
X125075000Y-88880000D02*
X130140000Y-93945000D01*
X125075000Y-81915000D02*
X125075000Y-88880000D01*
%TO.N,Net-(J2-Pad5)*%
X129894511Y-94969511D02*
X122535000Y-87610000D01*
X141215489Y-94969511D02*
X129894511Y-94969511D01*
X142240000Y-93945000D02*
X144780000Y-93945000D01*
X142240000Y-93945000D02*
X141215489Y-94969511D01*
X122535000Y-87610000D02*
X122535000Y-81915000D01*
%TO.N,Net-(J2-Pad6)*%
X119995000Y-81915000D02*
X119995000Y-86985000D01*
X119995000Y-86985000D02*
X122555000Y-89545000D01*
%TO.N,Net-(J2-Pad7)*%
X117455000Y-81915000D02*
X117455000Y-89525000D01*
X117455000Y-89525000D02*
X117475000Y-89545000D01*
%TD*%
%TA.AperFunction,Conductor*%
%TO.N,GND*%
G36*
X159708121Y-79014002D02*
G01*
X159754614Y-79067658D01*
X159766000Y-79120000D01*
X159766000Y-101220000D01*
X159745998Y-101288121D01*
X159692342Y-101334614D01*
X159640000Y-101346000D01*
X91820000Y-101346000D01*
X91751879Y-101325998D01*
X91705386Y-101272342D01*
X91694000Y-101220000D01*
X91694000Y-98159261D01*
X116825294Y-98159261D01*
X116834590Y-98171276D01*
X116864189Y-98192001D01*
X116873677Y-98197479D01*
X117055277Y-98282159D01*
X117065571Y-98285907D01*
X117259122Y-98337769D01*
X117269909Y-98339671D01*
X117469525Y-98357135D01*
X117480475Y-98357135D01*
X117680091Y-98339671D01*
X117690878Y-98337769D01*
X117884429Y-98285907D01*
X117894723Y-98282159D01*
X118076323Y-98197479D01*
X118085811Y-98192001D01*
X118116248Y-98170689D01*
X118124623Y-98160212D01*
X118124123Y-98159261D01*
X139050294Y-98159261D01*
X139059590Y-98171276D01*
X139089189Y-98192001D01*
X139098677Y-98197479D01*
X139280277Y-98282159D01*
X139290571Y-98285907D01*
X139484122Y-98337769D01*
X139494909Y-98339671D01*
X139694525Y-98357135D01*
X139705475Y-98357135D01*
X139905091Y-98339671D01*
X139915878Y-98337769D01*
X140109429Y-98285907D01*
X140119723Y-98282159D01*
X140301323Y-98197479D01*
X140310811Y-98192001D01*
X140341248Y-98170689D01*
X140349623Y-98160212D01*
X140342554Y-98146764D01*
X139712812Y-97517022D01*
X139698868Y-97509408D01*
X139697035Y-97509539D01*
X139690420Y-97513790D01*
X139056724Y-98147486D01*
X139050294Y-98159261D01*
X118124123Y-98159261D01*
X118117554Y-98146764D01*
X117487812Y-97517022D01*
X117473868Y-97509408D01*
X117472035Y-97509539D01*
X117465420Y-97513790D01*
X116831724Y-98147486D01*
X116825294Y-98159261D01*
X91694000Y-98159261D01*
X91694000Y-96787966D01*
X100268257Y-96787966D01*
X100298565Y-96922446D01*
X100301645Y-96932275D01*
X100381770Y-97129603D01*
X100386413Y-97138794D01*
X100497694Y-97320388D01*
X100503777Y-97328699D01*
X100643213Y-97489667D01*
X100650580Y-97496883D01*
X100814434Y-97632916D01*
X100822881Y-97638831D01*
X101006756Y-97746279D01*
X101016042Y-97750729D01*
X101215001Y-97826703D01*
X101224899Y-97829579D01*
X101328250Y-97850606D01*
X101342299Y-97849410D01*
X101346000Y-97839065D01*
X101346000Y-97838517D01*
X101854000Y-97838517D01*
X101858064Y-97852359D01*
X101871478Y-97854393D01*
X101878184Y-97853534D01*
X101888262Y-97851392D01*
X102092255Y-97790191D01*
X102101842Y-97786433D01*
X102293095Y-97692739D01*
X102301945Y-97687464D01*
X102475328Y-97563792D01*
X102483200Y-97557139D01*
X102634052Y-97406812D01*
X102640730Y-97398965D01*
X102765003Y-97226020D01*
X102770313Y-97217183D01*
X102803282Y-97150475D01*
X116262865Y-97150475D01*
X116280329Y-97350091D01*
X116282231Y-97360878D01*
X116334093Y-97554429D01*
X116337841Y-97564723D01*
X116422521Y-97746323D01*
X116427999Y-97755811D01*
X116449311Y-97786248D01*
X116459788Y-97794623D01*
X116473236Y-97787554D01*
X117102978Y-97157812D01*
X117109356Y-97146132D01*
X117839408Y-97146132D01*
X117839539Y-97147965D01*
X117843790Y-97154580D01*
X118477486Y-97788276D01*
X118489261Y-97794706D01*
X118501276Y-97785410D01*
X118522001Y-97755811D01*
X118527479Y-97746323D01*
X118612159Y-97564723D01*
X118615907Y-97554429D01*
X118667769Y-97360878D01*
X118669671Y-97350091D01*
X118687135Y-97150475D01*
X118687135Y-97139525D01*
X118686442Y-97131609D01*
X121595975Y-97131609D01*
X121611639Y-97318139D01*
X121613338Y-97324064D01*
X121634816Y-97398965D01*
X121663235Y-97498075D01*
X121666050Y-97503552D01*
X121666051Y-97503555D01*
X121697487Y-97564723D01*
X121748797Y-97664562D01*
X121752620Y-97669386D01*
X121752623Y-97669390D01*
X121775194Y-97697867D01*
X121865068Y-97811259D01*
X121869762Y-97815254D01*
X121883215Y-97826703D01*
X122007618Y-97932579D01*
X122012996Y-97935585D01*
X122012998Y-97935586D01*
X122047396Y-97954810D01*
X122171018Y-98023900D01*
X122349043Y-98081744D01*
X122534914Y-98103908D01*
X122541049Y-98103436D01*
X122541051Y-98103436D01*
X122715408Y-98090020D01*
X122715413Y-98090019D01*
X122721549Y-98089547D01*
X122727479Y-98087891D01*
X122727481Y-98087891D01*
X122895913Y-98040864D01*
X122895912Y-98040864D01*
X122901841Y-98039209D01*
X122932148Y-98023900D01*
X122980774Y-97999337D01*
X123068921Y-97954810D01*
X123097376Y-97932579D01*
X123211571Y-97843360D01*
X123211572Y-97843360D01*
X123216427Y-97839566D01*
X123338738Y-97697867D01*
X123431198Y-97535108D01*
X123490283Y-97357491D01*
X123513744Y-97171780D01*
X123514042Y-97150475D01*
X138487865Y-97150475D01*
X138505329Y-97350091D01*
X138507231Y-97360878D01*
X138559093Y-97554429D01*
X138562841Y-97564723D01*
X138647521Y-97746323D01*
X138652999Y-97755811D01*
X138674311Y-97786248D01*
X138684788Y-97794623D01*
X138698236Y-97787554D01*
X139327978Y-97157812D01*
X139334356Y-97146132D01*
X140064408Y-97146132D01*
X140064539Y-97147965D01*
X140068790Y-97154580D01*
X140702486Y-97788276D01*
X140714261Y-97794706D01*
X140726276Y-97785410D01*
X140747001Y-97755811D01*
X140752479Y-97746323D01*
X140837159Y-97564723D01*
X140840907Y-97554429D01*
X140892769Y-97360878D01*
X140894671Y-97350091D01*
X140912135Y-97150475D01*
X140912135Y-97139525D01*
X140911442Y-97131609D01*
X143820975Y-97131609D01*
X143836639Y-97318139D01*
X143838338Y-97324064D01*
X143859816Y-97398965D01*
X143888235Y-97498075D01*
X143891050Y-97503552D01*
X143891051Y-97503555D01*
X143922487Y-97564723D01*
X143973797Y-97664562D01*
X143977620Y-97669386D01*
X143977623Y-97669390D01*
X144000194Y-97697867D01*
X144090068Y-97811259D01*
X144094762Y-97815254D01*
X144108215Y-97826703D01*
X144232618Y-97932579D01*
X144237996Y-97935585D01*
X144237998Y-97935586D01*
X144272396Y-97954810D01*
X144396018Y-98023900D01*
X144574043Y-98081744D01*
X144759914Y-98103908D01*
X144766049Y-98103436D01*
X144766051Y-98103436D01*
X144940408Y-98090020D01*
X144940413Y-98090019D01*
X144946549Y-98089547D01*
X144952479Y-98087891D01*
X144952481Y-98087891D01*
X145120913Y-98040864D01*
X145120912Y-98040864D01*
X145126841Y-98039209D01*
X145157148Y-98023900D01*
X145205774Y-97999337D01*
X145293921Y-97954810D01*
X145322376Y-97932579D01*
X145436571Y-97843360D01*
X145436572Y-97843360D01*
X145441427Y-97839566D01*
X145563738Y-97697867D01*
X145656198Y-97535108D01*
X145715283Y-97357491D01*
X145738744Y-97171780D01*
X145739118Y-97145000D01*
X145720852Y-96958706D01*
X145666749Y-96779509D01*
X145663305Y-96773032D01*
X145581764Y-96619674D01*
X145581762Y-96619671D01*
X145578870Y-96614232D01*
X145574980Y-96609462D01*
X145574977Y-96609458D01*
X145464457Y-96473948D01*
X145464454Y-96473945D01*
X145460562Y-96469173D01*
X145316332Y-96349855D01*
X145151673Y-96260824D01*
X145062265Y-96233148D01*
X144978744Y-96207294D01*
X144978741Y-96207293D01*
X144972857Y-96205472D01*
X144966732Y-96204828D01*
X144966731Y-96204828D01*
X144792824Y-96186549D01*
X144792823Y-96186549D01*
X144786696Y-96185905D01*
X144710143Y-96192872D01*
X144606418Y-96202312D01*
X144606415Y-96202313D01*
X144600279Y-96202871D01*
X144594373Y-96204609D01*
X144594369Y-96204610D01*
X144459075Y-96244429D01*
X144420708Y-96255721D01*
X144254822Y-96342444D01*
X144250022Y-96346304D01*
X144250021Y-96346304D01*
X144240718Y-96353784D01*
X144108940Y-96459736D01*
X143988619Y-96603130D01*
X143985655Y-96608522D01*
X143985652Y-96608526D01*
X143921468Y-96725277D01*
X143898441Y-96767163D01*
X143896580Y-96773030D01*
X143896579Y-96773032D01*
X143894181Y-96780592D01*
X143841841Y-96945588D01*
X143820975Y-97131609D01*
X140911442Y-97131609D01*
X140894671Y-96939909D01*
X140892769Y-96929122D01*
X140840907Y-96735571D01*
X140837159Y-96725277D01*
X140752479Y-96543677D01*
X140747001Y-96534189D01*
X140725689Y-96503752D01*
X140715212Y-96495377D01*
X140701764Y-96502446D01*
X140072022Y-97132188D01*
X140064408Y-97146132D01*
X139334356Y-97146132D01*
X139335592Y-97143868D01*
X139335461Y-97142035D01*
X139331210Y-97135420D01*
X138697514Y-96501724D01*
X138685739Y-96495294D01*
X138673724Y-96504590D01*
X138652999Y-96534189D01*
X138647521Y-96543677D01*
X138562841Y-96725277D01*
X138559093Y-96735571D01*
X138507231Y-96929122D01*
X138505329Y-96939909D01*
X138487865Y-97139525D01*
X138487865Y-97150475D01*
X123514042Y-97150475D01*
X123514118Y-97145000D01*
X123495852Y-96958706D01*
X123441749Y-96779509D01*
X123438305Y-96773032D01*
X123356764Y-96619674D01*
X123356762Y-96619671D01*
X123353870Y-96614232D01*
X123349980Y-96609462D01*
X123349977Y-96609458D01*
X123239457Y-96473948D01*
X123239454Y-96473945D01*
X123235562Y-96469173D01*
X123091332Y-96349855D01*
X122926673Y-96260824D01*
X122837265Y-96233148D01*
X122753744Y-96207294D01*
X122753741Y-96207293D01*
X122747857Y-96205472D01*
X122741732Y-96204828D01*
X122741731Y-96204828D01*
X122567824Y-96186549D01*
X122567823Y-96186549D01*
X122561696Y-96185905D01*
X122485143Y-96192872D01*
X122381418Y-96202312D01*
X122381415Y-96202313D01*
X122375279Y-96202871D01*
X122369373Y-96204609D01*
X122369369Y-96204610D01*
X122234075Y-96244429D01*
X122195708Y-96255721D01*
X122029822Y-96342444D01*
X122025022Y-96346304D01*
X122025021Y-96346304D01*
X122015718Y-96353784D01*
X121883940Y-96459736D01*
X121763619Y-96603130D01*
X121760655Y-96608522D01*
X121760652Y-96608526D01*
X121696468Y-96725277D01*
X121673441Y-96767163D01*
X121671580Y-96773030D01*
X121671579Y-96773032D01*
X121669181Y-96780592D01*
X121616841Y-96945588D01*
X121595975Y-97131609D01*
X118686442Y-97131609D01*
X118669671Y-96939909D01*
X118667769Y-96929122D01*
X118615907Y-96735571D01*
X118612159Y-96725277D01*
X118527479Y-96543677D01*
X118522001Y-96534189D01*
X118500689Y-96503752D01*
X118490212Y-96495377D01*
X118476764Y-96502446D01*
X117847022Y-97132188D01*
X117839408Y-97146132D01*
X117109356Y-97146132D01*
X117110592Y-97143868D01*
X117110461Y-97142035D01*
X117106210Y-97135420D01*
X116472514Y-96501724D01*
X116460739Y-96495294D01*
X116448724Y-96504590D01*
X116427999Y-96534189D01*
X116422521Y-96543677D01*
X116337841Y-96725277D01*
X116334093Y-96735571D01*
X116282231Y-96929122D01*
X116280329Y-96939909D01*
X116262865Y-97139525D01*
X116262865Y-97150475D01*
X102803282Y-97150475D01*
X102864670Y-97026267D01*
X102868469Y-97016672D01*
X102930377Y-96812910D01*
X102932555Y-96802837D01*
X102933986Y-96791962D01*
X102931775Y-96777778D01*
X102918617Y-96774000D01*
X101872115Y-96774000D01*
X101856876Y-96778475D01*
X101855671Y-96779865D01*
X101854000Y-96787548D01*
X101854000Y-97838517D01*
X101346000Y-97838517D01*
X101346000Y-96792115D01*
X101341525Y-96776876D01*
X101340135Y-96775671D01*
X101332452Y-96774000D01*
X100283225Y-96774000D01*
X100269694Y-96777973D01*
X100268257Y-96787966D01*
X91694000Y-96787966D01*
X91694000Y-96254183D01*
X100264389Y-96254183D01*
X100265912Y-96262607D01*
X100278292Y-96266000D01*
X102918344Y-96266000D01*
X102931875Y-96262027D01*
X102933180Y-96252947D01*
X102902244Y-96129788D01*
X116825377Y-96129788D01*
X116832446Y-96143236D01*
X117462188Y-96772978D01*
X117476132Y-96780592D01*
X117477965Y-96780461D01*
X117484580Y-96776210D01*
X118118276Y-96142514D01*
X118124706Y-96130739D01*
X118123970Y-96129788D01*
X139050377Y-96129788D01*
X139057446Y-96143236D01*
X139687188Y-96772978D01*
X139701132Y-96780592D01*
X139702965Y-96780461D01*
X139709580Y-96776210D01*
X140343276Y-96142514D01*
X140349706Y-96130739D01*
X140340410Y-96118724D01*
X140310811Y-96097999D01*
X140301323Y-96092521D01*
X140119723Y-96007841D01*
X140109429Y-96004093D01*
X139915878Y-95952231D01*
X139905091Y-95950329D01*
X139705475Y-95932865D01*
X139694525Y-95932865D01*
X139494909Y-95950329D01*
X139484122Y-95952231D01*
X139290571Y-96004093D01*
X139280277Y-96007841D01*
X139098677Y-96092521D01*
X139089189Y-96097999D01*
X139058752Y-96119311D01*
X139050377Y-96129788D01*
X118123970Y-96129788D01*
X118115410Y-96118724D01*
X118085811Y-96097999D01*
X118076323Y-96092521D01*
X117894723Y-96007841D01*
X117884429Y-96004093D01*
X117690878Y-95952231D01*
X117680091Y-95950329D01*
X117480475Y-95932865D01*
X117469525Y-95932865D01*
X117269909Y-95950329D01*
X117259122Y-95952231D01*
X117065571Y-96004093D01*
X117055277Y-96007841D01*
X116873677Y-96092521D01*
X116864189Y-96097999D01*
X116833752Y-96119311D01*
X116825377Y-96129788D01*
X102902244Y-96129788D01*
X102891214Y-96085875D01*
X102887894Y-96076124D01*
X102802972Y-95880814D01*
X102798105Y-95871739D01*
X102682426Y-95692926D01*
X102676136Y-95684757D01*
X102532806Y-95527240D01*
X102525273Y-95520215D01*
X102358139Y-95388222D01*
X102349552Y-95382517D01*
X102237765Y-95320807D01*
X102187795Y-95270375D01*
X102173023Y-95200932D01*
X102198139Y-95134527D01*
X102255170Y-95092242D01*
X102298658Y-95084499D01*
X102475066Y-95084499D01*
X102510818Y-95077388D01*
X102537126Y-95072156D01*
X102537128Y-95072155D01*
X102549301Y-95069734D01*
X102559621Y-95062839D01*
X102559622Y-95062838D01*
X102623168Y-95020377D01*
X102633484Y-95013484D01*
X102689734Y-94929301D01*
X102704500Y-94855067D01*
X102704499Y-93931609D01*
X116515975Y-93931609D01*
X116531639Y-94118139D01*
X116533338Y-94124064D01*
X116579540Y-94285188D01*
X116583235Y-94298075D01*
X116586050Y-94303552D01*
X116586051Y-94303555D01*
X116639714Y-94407973D01*
X116668797Y-94464562D01*
X116672620Y-94469386D01*
X116672623Y-94469390D01*
X116765945Y-94587132D01*
X116785068Y-94611259D01*
X116927618Y-94732579D01*
X116932996Y-94735585D01*
X116932998Y-94735586D01*
X116967396Y-94754810D01*
X117091018Y-94823900D01*
X117269043Y-94881744D01*
X117454914Y-94903908D01*
X117461049Y-94903436D01*
X117461051Y-94903436D01*
X117635408Y-94890020D01*
X117635413Y-94890019D01*
X117641549Y-94889547D01*
X117647479Y-94887891D01*
X117647481Y-94887891D01*
X117815913Y-94840864D01*
X117815912Y-94840864D01*
X117821841Y-94839209D01*
X117852148Y-94823900D01*
X117900774Y-94799337D01*
X117988921Y-94754810D01*
X118017376Y-94732579D01*
X118131571Y-94643360D01*
X118131572Y-94643360D01*
X118136427Y-94639566D01*
X118224844Y-94537134D01*
X118254709Y-94502535D01*
X118254710Y-94502533D01*
X118258738Y-94497867D01*
X118351198Y-94335108D01*
X118410283Y-94157491D01*
X118433744Y-93971780D01*
X118434118Y-93945000D01*
X118432805Y-93931609D01*
X121595975Y-93931609D01*
X121611639Y-94118139D01*
X121613338Y-94124064D01*
X121659540Y-94285188D01*
X121663235Y-94298075D01*
X121666050Y-94303552D01*
X121666051Y-94303555D01*
X121719714Y-94407973D01*
X121748797Y-94464562D01*
X121752620Y-94469386D01*
X121752623Y-94469390D01*
X121845945Y-94587132D01*
X121865068Y-94611259D01*
X122007618Y-94732579D01*
X122012996Y-94735585D01*
X122012998Y-94735586D01*
X122047396Y-94754810D01*
X122171018Y-94823900D01*
X122349043Y-94881744D01*
X122534914Y-94903908D01*
X122541049Y-94903436D01*
X122541051Y-94903436D01*
X122715408Y-94890020D01*
X122715413Y-94890019D01*
X122721549Y-94889547D01*
X122727479Y-94887891D01*
X122727481Y-94887891D01*
X122895913Y-94840864D01*
X122895912Y-94840864D01*
X122901841Y-94839209D01*
X122932148Y-94823900D01*
X122980774Y-94799337D01*
X123068921Y-94754810D01*
X123097376Y-94732579D01*
X123211571Y-94643360D01*
X123211572Y-94643360D01*
X123216427Y-94639566D01*
X123304844Y-94537134D01*
X123334709Y-94502535D01*
X123334710Y-94502533D01*
X123338738Y-94497867D01*
X123431198Y-94335108D01*
X123490283Y-94157491D01*
X123513744Y-93971780D01*
X123514118Y-93945000D01*
X123495852Y-93758706D01*
X123441749Y-93579509D01*
X123432316Y-93561768D01*
X123356764Y-93419674D01*
X123356762Y-93419671D01*
X123353870Y-93414232D01*
X123349980Y-93409462D01*
X123349977Y-93409458D01*
X123239457Y-93273948D01*
X123239454Y-93273945D01*
X123235562Y-93269173D01*
X123091332Y-93149855D01*
X122926673Y-93060824D01*
X122837265Y-93033148D01*
X122753744Y-93007294D01*
X122753741Y-93007293D01*
X122747857Y-93005472D01*
X122741732Y-93004828D01*
X122741731Y-93004828D01*
X122567824Y-92986549D01*
X122567823Y-92986549D01*
X122561696Y-92985905D01*
X122485143Y-92992872D01*
X122381418Y-93002312D01*
X122381415Y-93002313D01*
X122375279Y-93002871D01*
X122369373Y-93004609D01*
X122369369Y-93004610D01*
X122280726Y-93030699D01*
X122195708Y-93055721D01*
X122029822Y-93142444D01*
X122025022Y-93146304D01*
X122025021Y-93146304D01*
X122015718Y-93153784D01*
X121883940Y-93259736D01*
X121763619Y-93403130D01*
X121760655Y-93408522D01*
X121760652Y-93408526D01*
X121710254Y-93500201D01*
X121673441Y-93567163D01*
X121671580Y-93573030D01*
X121671579Y-93573032D01*
X121647596Y-93648635D01*
X121616841Y-93745588D01*
X121595975Y-93931609D01*
X118432805Y-93931609D01*
X118415852Y-93758706D01*
X118361749Y-93579509D01*
X118352316Y-93561768D01*
X118276764Y-93419674D01*
X118276762Y-93419671D01*
X118273870Y-93414232D01*
X118269980Y-93409462D01*
X118269977Y-93409458D01*
X118159457Y-93273948D01*
X118159454Y-93273945D01*
X118155562Y-93269173D01*
X118011332Y-93149855D01*
X117846673Y-93060824D01*
X117757265Y-93033148D01*
X117673744Y-93007294D01*
X117673741Y-93007293D01*
X117667857Y-93005472D01*
X117661732Y-93004828D01*
X117661731Y-93004828D01*
X117487824Y-92986549D01*
X117487823Y-92986549D01*
X117481696Y-92985905D01*
X117405143Y-92992872D01*
X117301418Y-93002312D01*
X117301415Y-93002313D01*
X117295279Y-93002871D01*
X117289373Y-93004609D01*
X117289369Y-93004610D01*
X117200726Y-93030699D01*
X117115708Y-93055721D01*
X116949822Y-93142444D01*
X116945022Y-93146304D01*
X116945021Y-93146304D01*
X116935718Y-93153784D01*
X116803940Y-93259736D01*
X116683619Y-93403130D01*
X116680655Y-93408522D01*
X116680652Y-93408526D01*
X116630254Y-93500201D01*
X116593441Y-93567163D01*
X116591580Y-93573030D01*
X116591579Y-93573032D01*
X116567596Y-93648635D01*
X116536841Y-93745588D01*
X116515975Y-93931609D01*
X102704499Y-93931609D01*
X102704499Y-93104934D01*
X102697388Y-93069182D01*
X102692156Y-93042874D01*
X102692155Y-93042872D01*
X102689734Y-93030699D01*
X102672448Y-93004828D01*
X102640377Y-92956832D01*
X102633484Y-92946516D01*
X102549301Y-92890266D01*
X102475067Y-92875500D01*
X102230500Y-92875500D01*
X102162379Y-92855498D01*
X102115886Y-92801842D01*
X102104500Y-92749500D01*
X102104500Y-91731609D01*
X116515975Y-91731609D01*
X116531639Y-91918139D01*
X116583235Y-92098075D01*
X116668797Y-92264562D01*
X116672620Y-92269386D01*
X116672623Y-92269390D01*
X116695194Y-92297867D01*
X116785068Y-92411259D01*
X116927618Y-92532579D01*
X116932996Y-92535585D01*
X116932998Y-92535586D01*
X116967396Y-92554810D01*
X117091018Y-92623900D01*
X117269043Y-92681744D01*
X117454914Y-92703908D01*
X117461049Y-92703436D01*
X117461051Y-92703436D01*
X117635408Y-92690020D01*
X117635413Y-92690019D01*
X117641549Y-92689547D01*
X117647479Y-92687891D01*
X117647481Y-92687891D01*
X117815913Y-92640864D01*
X117815912Y-92640864D01*
X117821841Y-92639209D01*
X117852148Y-92623900D01*
X117900774Y-92599337D01*
X117988921Y-92554810D01*
X118017376Y-92532579D01*
X118131571Y-92443360D01*
X118131572Y-92443360D01*
X118136427Y-92439566D01*
X118258738Y-92297867D01*
X118351198Y-92135108D01*
X118410283Y-91957491D01*
X118433744Y-91771780D01*
X118434118Y-91745000D01*
X118432805Y-91731609D01*
X121595975Y-91731609D01*
X121611639Y-91918139D01*
X121663235Y-92098075D01*
X121748797Y-92264562D01*
X121752620Y-92269386D01*
X121752623Y-92269390D01*
X121775194Y-92297867D01*
X121865068Y-92411259D01*
X122007618Y-92532579D01*
X122012996Y-92535585D01*
X122012998Y-92535586D01*
X122047396Y-92554810D01*
X122171018Y-92623900D01*
X122349043Y-92681744D01*
X122534914Y-92703908D01*
X122541049Y-92703436D01*
X122541051Y-92703436D01*
X122715408Y-92690020D01*
X122715413Y-92690019D01*
X122721549Y-92689547D01*
X122727479Y-92687891D01*
X122727481Y-92687891D01*
X122895913Y-92640864D01*
X122895912Y-92640864D01*
X122901841Y-92639209D01*
X122932148Y-92623900D01*
X122980774Y-92599337D01*
X123068921Y-92554810D01*
X123097376Y-92532579D01*
X123211571Y-92443360D01*
X123211572Y-92443360D01*
X123216427Y-92439566D01*
X123338738Y-92297867D01*
X123431198Y-92135108D01*
X123490283Y-91957491D01*
X123513744Y-91771780D01*
X123514118Y-91745000D01*
X123495852Y-91558706D01*
X123441749Y-91379509D01*
X123353870Y-91214232D01*
X123349980Y-91209462D01*
X123349977Y-91209458D01*
X123239457Y-91073948D01*
X123239454Y-91073945D01*
X123235562Y-91069173D01*
X123091332Y-90949855D01*
X122926673Y-90860824D01*
X122837265Y-90833148D01*
X122753744Y-90807294D01*
X122753741Y-90807293D01*
X122747857Y-90805472D01*
X122741732Y-90804828D01*
X122741731Y-90804828D01*
X122567824Y-90786549D01*
X122567823Y-90786549D01*
X122561696Y-90785905D01*
X122485143Y-90792872D01*
X122381418Y-90802312D01*
X122381415Y-90802313D01*
X122375279Y-90802871D01*
X122369373Y-90804609D01*
X122369369Y-90804610D01*
X122234075Y-90844429D01*
X122195708Y-90855721D01*
X122029822Y-90942444D01*
X122025022Y-90946304D01*
X122025021Y-90946304D01*
X122015718Y-90953784D01*
X121883940Y-91059736D01*
X121763619Y-91203130D01*
X121760655Y-91208522D01*
X121760652Y-91208526D01*
X121686455Y-91343491D01*
X121673441Y-91367163D01*
X121671580Y-91373030D01*
X121671579Y-91373032D01*
X121667653Y-91385409D01*
X121616841Y-91545588D01*
X121595975Y-91731609D01*
X118432805Y-91731609D01*
X118415852Y-91558706D01*
X118361749Y-91379509D01*
X118273870Y-91214232D01*
X118269980Y-91209462D01*
X118269977Y-91209458D01*
X118159457Y-91073948D01*
X118159454Y-91073945D01*
X118155562Y-91069173D01*
X118011332Y-90949855D01*
X117846673Y-90860824D01*
X117757265Y-90833148D01*
X117673744Y-90807294D01*
X117673741Y-90807293D01*
X117667857Y-90805472D01*
X117661732Y-90804828D01*
X117661731Y-90804828D01*
X117487824Y-90786549D01*
X117487823Y-90786549D01*
X117481696Y-90785905D01*
X117405143Y-90792872D01*
X117301418Y-90802312D01*
X117301415Y-90802313D01*
X117295279Y-90802871D01*
X117289373Y-90804609D01*
X117289369Y-90804610D01*
X117154075Y-90844429D01*
X117115708Y-90855721D01*
X116949822Y-90942444D01*
X116945022Y-90946304D01*
X116945021Y-90946304D01*
X116935718Y-90953784D01*
X116803940Y-91059736D01*
X116683619Y-91203130D01*
X116680655Y-91208522D01*
X116680652Y-91208526D01*
X116606455Y-91343491D01*
X116593441Y-91367163D01*
X116591580Y-91373030D01*
X116591579Y-91373032D01*
X116587653Y-91385409D01*
X116536841Y-91545588D01*
X116515975Y-91731609D01*
X102104500Y-91731609D01*
X102104500Y-90939161D01*
X102124502Y-90871040D01*
X102141405Y-90850066D01*
X103640409Y-89351062D01*
X106958493Y-89351062D01*
X106967789Y-89363077D01*
X107018994Y-89398931D01*
X107028489Y-89404414D01*
X107225947Y-89496490D01*
X107236239Y-89500236D01*
X107446688Y-89556625D01*
X107457481Y-89558528D01*
X107674525Y-89577517D01*
X107685475Y-89577517D01*
X107902519Y-89558528D01*
X107913312Y-89556625D01*
X108123761Y-89500236D01*
X108134053Y-89496490D01*
X108331511Y-89404414D01*
X108341006Y-89398931D01*
X108393048Y-89362491D01*
X108401424Y-89352012D01*
X108394356Y-89338566D01*
X107692812Y-88637022D01*
X107678868Y-88629408D01*
X107677035Y-88629539D01*
X107670420Y-88633790D01*
X106964923Y-89339287D01*
X106958493Y-89351062D01*
X103640409Y-89351062D01*
X104185066Y-88806405D01*
X104247378Y-88772379D01*
X104274161Y-88769500D01*
X104676708Y-88769500D01*
X104744829Y-88789502D01*
X104781223Y-88829594D01*
X104783179Y-88828334D01*
X104786516Y-88833512D01*
X104789334Y-88838995D01*
X104917786Y-89001061D01*
X104922479Y-89005055D01*
X104922480Y-89005056D01*
X105052621Y-89115814D01*
X105075271Y-89135091D01*
X105255789Y-89235980D01*
X105452466Y-89299884D01*
X105657809Y-89324370D01*
X105663944Y-89323898D01*
X105663946Y-89323898D01*
X105857856Y-89308977D01*
X105857860Y-89308976D01*
X105863998Y-89308504D01*
X106063178Y-89252892D01*
X106068682Y-89250112D01*
X106068684Y-89250111D01*
X106242262Y-89162431D01*
X106242264Y-89162430D01*
X106247763Y-89159652D01*
X106410722Y-89032334D01*
X106429306Y-89010805D01*
X106488958Y-88972307D01*
X106559954Y-88972171D01*
X106589234Y-88987378D01*
X106590854Y-88987545D01*
X106606434Y-88979356D01*
X107307978Y-88277812D01*
X107314356Y-88266132D01*
X108044408Y-88266132D01*
X108044539Y-88267965D01*
X108048790Y-88274580D01*
X108754287Y-88980077D01*
X108766062Y-88986507D01*
X108778077Y-88977211D01*
X108813931Y-88926006D01*
X108819414Y-88916511D01*
X108911490Y-88719053D01*
X108915236Y-88708761D01*
X108971625Y-88498312D01*
X108973528Y-88487519D01*
X108992517Y-88270475D01*
X108992517Y-88259525D01*
X108973528Y-88042481D01*
X108971625Y-88031688D01*
X108915236Y-87821239D01*
X108911490Y-87810947D01*
X108819414Y-87613489D01*
X108813931Y-87603994D01*
X108777491Y-87551952D01*
X108767012Y-87543576D01*
X108753566Y-87550644D01*
X108052022Y-88252188D01*
X108044408Y-88266132D01*
X107314356Y-88266132D01*
X107315592Y-88263868D01*
X107315461Y-88262035D01*
X107311210Y-88255420D01*
X106605713Y-87549923D01*
X106591769Y-87542309D01*
X106586129Y-87542712D01*
X106537849Y-87561597D01*
X106468245Y-87547608D01*
X106437462Y-87524860D01*
X106435760Y-87523146D01*
X106431863Y-87518368D01*
X106321900Y-87427399D01*
X106277271Y-87390478D01*
X106277266Y-87390475D01*
X106272522Y-87386550D01*
X106267103Y-87383620D01*
X106267100Y-87383618D01*
X106096032Y-87291122D01*
X106096027Y-87291120D01*
X106090612Y-87288192D01*
X105893063Y-87227040D01*
X105886938Y-87226396D01*
X105886937Y-87226396D01*
X105693526Y-87206068D01*
X105693524Y-87206068D01*
X105687397Y-87205424D01*
X105587061Y-87214555D01*
X105487591Y-87223607D01*
X105487590Y-87223607D01*
X105481450Y-87224166D01*
X105283066Y-87282554D01*
X105277601Y-87285411D01*
X105105261Y-87375508D01*
X105105257Y-87375511D01*
X105099801Y-87378363D01*
X105095001Y-87382223D01*
X105095000Y-87382223D01*
X105093265Y-87383618D01*
X104938635Y-87507943D01*
X104805708Y-87666360D01*
X104802744Y-87671752D01*
X104802741Y-87671756D01*
X104789851Y-87695203D01*
X104739505Y-87745260D01*
X104679437Y-87760500D01*
X104083624Y-87760500D01*
X104071619Y-87759159D01*
X104071579Y-87759655D01*
X104062632Y-87758935D01*
X104053876Y-87756954D01*
X104010338Y-87759655D01*
X104000618Y-87760258D01*
X103992816Y-87760500D01*
X103976774Y-87760500D01*
X103972343Y-87761135D01*
X103972338Y-87761135D01*
X103968313Y-87761712D01*
X103966543Y-87761965D01*
X103956486Y-87762996D01*
X103934024Y-87764389D01*
X103918600Y-87765346D01*
X103918598Y-87765346D01*
X103909641Y-87765902D01*
X103901201Y-87768949D01*
X103897911Y-87769630D01*
X103882062Y-87773582D01*
X103878832Y-87774527D01*
X103869948Y-87775799D01*
X103827222Y-87795225D01*
X103817860Y-87799036D01*
X103782158Y-87811925D01*
X103782157Y-87811926D01*
X103773716Y-87814973D01*
X103766467Y-87820269D01*
X103763486Y-87821854D01*
X103749408Y-87830080D01*
X103746569Y-87831896D01*
X103738395Y-87835612D01*
X103731591Y-87841475D01*
X103702848Y-87866242D01*
X103694930Y-87872530D01*
X103684056Y-87880473D01*
X103673194Y-87891335D01*
X103666348Y-87897693D01*
X103628918Y-87929944D01*
X103624034Y-87937479D01*
X103618301Y-87944051D01*
X103609074Y-87955455D01*
X101293206Y-90271323D01*
X101283766Y-90278865D01*
X101284089Y-90279245D01*
X101277253Y-90285063D01*
X101269661Y-90289853D01*
X101263719Y-90296581D01*
X101234329Y-90329859D01*
X101228983Y-90335546D01*
X101217649Y-90346880D01*
X101214964Y-90350463D01*
X101214962Y-90350465D01*
X101211447Y-90355155D01*
X101205062Y-90362998D01*
X101173999Y-90398170D01*
X101170186Y-90406292D01*
X101168346Y-90409093D01*
X101159937Y-90423088D01*
X101158315Y-90426051D01*
X101152930Y-90433236D01*
X101149777Y-90441646D01*
X101149776Y-90441648D01*
X101136454Y-90477182D01*
X101132530Y-90486495D01*
X101112583Y-90528982D01*
X101111201Y-90537856D01*
X101110215Y-90541083D01*
X101106075Y-90556866D01*
X101105354Y-90560144D01*
X101102202Y-90568552D01*
X101101537Y-90577503D01*
X101098724Y-90615357D01*
X101097570Y-90625404D01*
X101095500Y-90638697D01*
X101095500Y-90654062D01*
X101095154Y-90663399D01*
X101091493Y-90712667D01*
X101093366Y-90721442D01*
X101093959Y-90730138D01*
X101095500Y-90744738D01*
X101095500Y-92749501D01*
X101075498Y-92817622D01*
X101021842Y-92864115D01*
X100969500Y-92875501D01*
X100724934Y-92875501D01*
X100689182Y-92882612D01*
X100662874Y-92887844D01*
X100662872Y-92887845D01*
X100650699Y-92890266D01*
X100640379Y-92897161D01*
X100640378Y-92897162D01*
X100579985Y-92937516D01*
X100566516Y-92946516D01*
X100510266Y-93030699D01*
X100495500Y-93104933D01*
X100495501Y-94855066D01*
X100500807Y-94881744D01*
X100505122Y-94903436D01*
X100510266Y-94929301D01*
X100566516Y-95013484D01*
X100650699Y-95069734D01*
X100724933Y-95084500D01*
X100901500Y-95084500D01*
X100969621Y-95104502D01*
X101016114Y-95158158D01*
X101026218Y-95228432D01*
X100996724Y-95293012D01*
X100959681Y-95322263D01*
X100878458Y-95364545D01*
X100869738Y-95370036D01*
X100699433Y-95497905D01*
X100691726Y-95504748D01*
X100544590Y-95658717D01*
X100538104Y-95666727D01*
X100418098Y-95842649D01*
X100413000Y-95851623D01*
X100323338Y-96044783D01*
X100319775Y-96054470D01*
X100264389Y-96254183D01*
X91694000Y-96254183D01*
X91694000Y-87177988D01*
X106958576Y-87177988D01*
X106965644Y-87191434D01*
X107667188Y-87892978D01*
X107681132Y-87900592D01*
X107682965Y-87900461D01*
X107689580Y-87896210D01*
X108395077Y-87190713D01*
X108401507Y-87178938D01*
X108392211Y-87166923D01*
X108341006Y-87131069D01*
X108331511Y-87125586D01*
X108134053Y-87033510D01*
X108123761Y-87029764D01*
X107913312Y-86973375D01*
X107902519Y-86971472D01*
X107685475Y-86952483D01*
X107674525Y-86952483D01*
X107457481Y-86971472D01*
X107446688Y-86973375D01*
X107236239Y-87029764D01*
X107225947Y-87033510D01*
X107028489Y-87125586D01*
X107018994Y-87131069D01*
X106966952Y-87167509D01*
X106958576Y-87177988D01*
X91694000Y-87177988D01*
X91694000Y-81910964D01*
X94141148Y-81910964D01*
X94154424Y-82113522D01*
X94155845Y-82119118D01*
X94155846Y-82119123D01*
X94176119Y-82198945D01*
X94204392Y-82310269D01*
X94206809Y-82315512D01*
X94244010Y-82396208D01*
X94289377Y-82494616D01*
X94292710Y-82499332D01*
X94391717Y-82639424D01*
X94406533Y-82660389D01*
X94551938Y-82802035D01*
X94720720Y-82914812D01*
X94726023Y-82917090D01*
X94726026Y-82917092D01*
X94899747Y-82991728D01*
X94907228Y-82994942D01*
X94980244Y-83011464D01*
X95099579Y-83038467D01*
X95099584Y-83038468D01*
X95105216Y-83039742D01*
X95110987Y-83039969D01*
X95110989Y-83039969D01*
X95170756Y-83042317D01*
X95308053Y-83047712D01*
X95415348Y-83032155D01*
X95503231Y-83019413D01*
X95503236Y-83019412D01*
X95508945Y-83018584D01*
X95514409Y-83016729D01*
X95514414Y-83016728D01*
X95695693Y-82955192D01*
X95695698Y-82955190D01*
X95701165Y-82953334D01*
X95709826Y-82948484D01*
X95779138Y-82909667D01*
X95878276Y-82854147D01*
X95904939Y-82831972D01*
X96005696Y-82748172D01*
X96034345Y-82724345D01*
X96104547Y-82639937D01*
X96160453Y-82572718D01*
X96160455Y-82572715D01*
X96164147Y-82568276D01*
X96263334Y-82391165D01*
X96265190Y-82385698D01*
X96265192Y-82385693D01*
X96326728Y-82204414D01*
X96326729Y-82204409D01*
X96328584Y-82198945D01*
X96329412Y-82193236D01*
X96329413Y-82193231D01*
X96357179Y-82001727D01*
X96357712Y-81998053D01*
X96359232Y-81940000D01*
X96356564Y-81910964D01*
X96681148Y-81910964D01*
X96694424Y-82113522D01*
X96695845Y-82119118D01*
X96695846Y-82119123D01*
X96716119Y-82198945D01*
X96744392Y-82310269D01*
X96746809Y-82315512D01*
X96784010Y-82396208D01*
X96829377Y-82494616D01*
X96832710Y-82499332D01*
X96931717Y-82639424D01*
X96946533Y-82660389D01*
X97091938Y-82802035D01*
X97260720Y-82914812D01*
X97266023Y-82917090D01*
X97266026Y-82917092D01*
X97439747Y-82991728D01*
X97447228Y-82994942D01*
X97520244Y-83011464D01*
X97639579Y-83038467D01*
X97639584Y-83038468D01*
X97645216Y-83039742D01*
X97650987Y-83039969D01*
X97650989Y-83039969D01*
X97710756Y-83042317D01*
X97848053Y-83047712D01*
X97955348Y-83032155D01*
X98043231Y-83019413D01*
X98043236Y-83019412D01*
X98048945Y-83018584D01*
X98054409Y-83016729D01*
X98054414Y-83016728D01*
X98235693Y-82955192D01*
X98235698Y-82955190D01*
X98241165Y-82953334D01*
X98249826Y-82948484D01*
X98319138Y-82909667D01*
X98418276Y-82854147D01*
X98444939Y-82831972D01*
X98545696Y-82748172D01*
X98574345Y-82724345D01*
X98644547Y-82639937D01*
X98700453Y-82572718D01*
X98700455Y-82572715D01*
X98704147Y-82568276D01*
X98803334Y-82391165D01*
X98805190Y-82385698D01*
X98805192Y-82385693D01*
X98866728Y-82204414D01*
X98866729Y-82204409D01*
X98868584Y-82198945D01*
X98869412Y-82193236D01*
X98869413Y-82193231D01*
X98897179Y-82001727D01*
X98897712Y-81998053D01*
X98899232Y-81940000D01*
X98896564Y-81910964D01*
X99221148Y-81910964D01*
X99234424Y-82113522D01*
X99235845Y-82119118D01*
X99235846Y-82119123D01*
X99256119Y-82198945D01*
X99284392Y-82310269D01*
X99286809Y-82315512D01*
X99324010Y-82396208D01*
X99369377Y-82494616D01*
X99372710Y-82499332D01*
X99471717Y-82639424D01*
X99486533Y-82660389D01*
X99631938Y-82802035D01*
X99800720Y-82914812D01*
X99806023Y-82917090D01*
X99806026Y-82917092D01*
X99979747Y-82991728D01*
X99987228Y-82994942D01*
X100060244Y-83011464D01*
X100179579Y-83038467D01*
X100179584Y-83038468D01*
X100185216Y-83039742D01*
X100190987Y-83039969D01*
X100190989Y-83039969D01*
X100250756Y-83042317D01*
X100388053Y-83047712D01*
X100495348Y-83032155D01*
X100583231Y-83019413D01*
X100583236Y-83019412D01*
X100588945Y-83018584D01*
X100594409Y-83016729D01*
X100594414Y-83016728D01*
X100775693Y-82955192D01*
X100775698Y-82955190D01*
X100781165Y-82953334D01*
X100789826Y-82948484D01*
X100859138Y-82909667D01*
X100958276Y-82854147D01*
X100984939Y-82831972D01*
X101085696Y-82748172D01*
X101114345Y-82724345D01*
X101184547Y-82639937D01*
X101240453Y-82572718D01*
X101240455Y-82572715D01*
X101244147Y-82568276D01*
X101343334Y-82391165D01*
X101345190Y-82385698D01*
X101345192Y-82385693D01*
X101406728Y-82204414D01*
X101406729Y-82204409D01*
X101408584Y-82198945D01*
X101409412Y-82193236D01*
X101409413Y-82193231D01*
X101437179Y-82001727D01*
X101437712Y-81998053D01*
X101439232Y-81940000D01*
X101436564Y-81910964D01*
X101761148Y-81910964D01*
X101774424Y-82113522D01*
X101775845Y-82119118D01*
X101775846Y-82119123D01*
X101796119Y-82198945D01*
X101824392Y-82310269D01*
X101826809Y-82315512D01*
X101864010Y-82396208D01*
X101909377Y-82494616D01*
X101912710Y-82499332D01*
X102011717Y-82639424D01*
X102026533Y-82660389D01*
X102171938Y-82802035D01*
X102340720Y-82914812D01*
X102346023Y-82917090D01*
X102346026Y-82917092D01*
X102519747Y-82991728D01*
X102527228Y-82994942D01*
X102600244Y-83011464D01*
X102719579Y-83038467D01*
X102719584Y-83038468D01*
X102725216Y-83039742D01*
X102730987Y-83039969D01*
X102730989Y-83039969D01*
X102790756Y-83042317D01*
X102928053Y-83047712D01*
X103035348Y-83032155D01*
X103123231Y-83019413D01*
X103123236Y-83019412D01*
X103128945Y-83018584D01*
X103134409Y-83016729D01*
X103134414Y-83016728D01*
X103315693Y-82955192D01*
X103315698Y-82955190D01*
X103321165Y-82953334D01*
X103329826Y-82948484D01*
X103399138Y-82909667D01*
X103498276Y-82854147D01*
X103524939Y-82831972D01*
X103625696Y-82748172D01*
X103654345Y-82724345D01*
X103724547Y-82639937D01*
X103780453Y-82572718D01*
X103780455Y-82572715D01*
X103784147Y-82568276D01*
X103883334Y-82391165D01*
X103885190Y-82385698D01*
X103885192Y-82385693D01*
X103946728Y-82204414D01*
X103946729Y-82204409D01*
X103948584Y-82198945D01*
X103949412Y-82193236D01*
X103949413Y-82193231D01*
X103977179Y-82001727D01*
X103977712Y-81998053D01*
X103979232Y-81940000D01*
X103976564Y-81910964D01*
X104301148Y-81910964D01*
X104314424Y-82113522D01*
X104315845Y-82119118D01*
X104315846Y-82119123D01*
X104336119Y-82198945D01*
X104364392Y-82310269D01*
X104366809Y-82315512D01*
X104404010Y-82396208D01*
X104449377Y-82494616D01*
X104452710Y-82499332D01*
X104551717Y-82639424D01*
X104566533Y-82660389D01*
X104711938Y-82802035D01*
X104880720Y-82914812D01*
X104886023Y-82917090D01*
X104886026Y-82917092D01*
X105059747Y-82991728D01*
X105067228Y-82994942D01*
X105140244Y-83011464D01*
X105259579Y-83038467D01*
X105259584Y-83038468D01*
X105265216Y-83039742D01*
X105270987Y-83039969D01*
X105270989Y-83039969D01*
X105330756Y-83042317D01*
X105468053Y-83047712D01*
X105575348Y-83032155D01*
X105663231Y-83019413D01*
X105663236Y-83019412D01*
X105668945Y-83018584D01*
X105674409Y-83016729D01*
X105674414Y-83016728D01*
X105855693Y-82955192D01*
X105855698Y-82955190D01*
X105861165Y-82953334D01*
X105869826Y-82948484D01*
X105939138Y-82909667D01*
X106038276Y-82854147D01*
X106064939Y-82831972D01*
X106165696Y-82748172D01*
X106194345Y-82724345D01*
X106264547Y-82639937D01*
X106320453Y-82572718D01*
X106320455Y-82572715D01*
X106324147Y-82568276D01*
X106423334Y-82391165D01*
X106425720Y-82384135D01*
X106426170Y-82383496D01*
X106427541Y-82380416D01*
X106428146Y-82380685D01*
X106466553Y-82326059D01*
X106532305Y-82299278D01*
X106602098Y-82312295D01*
X106653773Y-82360980D01*
X106661777Y-82377229D01*
X106731770Y-82549603D01*
X106736413Y-82558794D01*
X106847694Y-82740388D01*
X106853777Y-82748699D01*
X106993213Y-82909667D01*
X107000580Y-82916883D01*
X107164434Y-83052916D01*
X107172881Y-83058831D01*
X107356756Y-83166279D01*
X107366042Y-83170729D01*
X107565001Y-83246703D01*
X107574899Y-83249579D01*
X107678250Y-83270606D01*
X107692299Y-83269410D01*
X107696000Y-83259065D01*
X107696000Y-83258517D01*
X108204000Y-83258517D01*
X108208064Y-83272359D01*
X108221478Y-83274393D01*
X108228184Y-83273534D01*
X108238262Y-83271392D01*
X108442255Y-83210191D01*
X108451842Y-83206433D01*
X108643095Y-83112739D01*
X108651945Y-83107464D01*
X108825328Y-82983792D01*
X108833200Y-82977139D01*
X108984052Y-82826812D01*
X108990730Y-82818965D01*
X109115003Y-82646020D01*
X109120310Y-82637188D01*
X109146544Y-82584109D01*
X109194658Y-82531903D01*
X109263360Y-82513996D01*
X109330836Y-82536075D01*
X109375664Y-82591129D01*
X109385501Y-82639937D01*
X109385501Y-82815066D01*
X109388302Y-82829147D01*
X109395294Y-82864301D01*
X109400266Y-82889301D01*
X109407161Y-82899620D01*
X109407162Y-82899622D01*
X109444417Y-82955377D01*
X109456516Y-82973484D01*
X109540699Y-83029734D01*
X109614933Y-83044500D01*
X110489858Y-83044500D01*
X111365066Y-83044499D01*
X111401940Y-83037165D01*
X111427126Y-83032156D01*
X111427128Y-83032155D01*
X111439301Y-83029734D01*
X111449621Y-83022839D01*
X111449622Y-83022838D01*
X111513168Y-82980377D01*
X111523484Y-82973484D01*
X111579734Y-82889301D01*
X111594500Y-82815067D01*
X111594499Y-81885964D01*
X116346148Y-81885964D01*
X116359424Y-82088522D01*
X116360845Y-82094118D01*
X116360846Y-82094123D01*
X116381119Y-82173945D01*
X116409392Y-82285269D01*
X116411809Y-82290512D01*
X116491959Y-82464371D01*
X116494377Y-82469616D01*
X116497710Y-82474332D01*
X116564103Y-82568276D01*
X116611533Y-82635389D01*
X116615675Y-82639424D01*
X116672637Y-82694913D01*
X116756938Y-82777035D01*
X116925720Y-82889812D01*
X116931023Y-82892090D01*
X116931028Y-82892093D01*
X116971934Y-82909667D01*
X116989217Y-82917092D01*
X116999237Y-82921397D01*
X117053930Y-82966665D01*
X117075500Y-83037165D01*
X117075500Y-88600433D01*
X117055498Y-88668554D01*
X117007876Y-88712094D01*
X116949822Y-88742444D01*
X116945022Y-88746304D01*
X116945021Y-88746304D01*
X116935718Y-88753784D01*
X116803940Y-88859736D01*
X116683619Y-89003130D01*
X116680655Y-89008522D01*
X116680652Y-89008526D01*
X116621670Y-89115814D01*
X116593441Y-89167163D01*
X116591580Y-89173030D01*
X116591579Y-89173032D01*
X116538840Y-89339287D01*
X116536841Y-89345588D01*
X116515975Y-89531609D01*
X116531639Y-89718139D01*
X116583235Y-89898075D01*
X116668797Y-90064562D01*
X116672620Y-90069386D01*
X116672623Y-90069390D01*
X116695194Y-90097867D01*
X116785068Y-90211259D01*
X116789762Y-90215254D01*
X116885321Y-90296581D01*
X116927618Y-90332579D01*
X116932996Y-90335585D01*
X116932998Y-90335586D01*
X116982050Y-90363000D01*
X117091018Y-90423900D01*
X117269043Y-90481744D01*
X117454914Y-90503908D01*
X117461049Y-90503436D01*
X117461051Y-90503436D01*
X117635408Y-90490020D01*
X117635413Y-90490019D01*
X117641549Y-90489547D01*
X117647479Y-90487891D01*
X117647481Y-90487891D01*
X117815913Y-90440864D01*
X117815912Y-90440864D01*
X117821841Y-90439209D01*
X117833666Y-90433236D01*
X117916401Y-90391443D01*
X117988921Y-90354810D01*
X117994483Y-90350465D01*
X118131571Y-90243360D01*
X118131572Y-90243360D01*
X118136427Y-90239566D01*
X118258738Y-90097867D01*
X118351198Y-89935108D01*
X118410283Y-89757491D01*
X118433744Y-89571780D01*
X118434118Y-89545000D01*
X118415852Y-89358706D01*
X118361749Y-89179509D01*
X118348228Y-89154079D01*
X118276764Y-89019674D01*
X118276762Y-89019671D01*
X118273870Y-89014232D01*
X118269980Y-89009462D01*
X118269977Y-89009458D01*
X118159457Y-88873948D01*
X118159454Y-88873945D01*
X118155562Y-88869173D01*
X118146742Y-88861876D01*
X118059257Y-88789502D01*
X118011332Y-88749855D01*
X118005913Y-88746925D01*
X118005909Y-88746922D01*
X117900572Y-88689967D01*
X117850163Y-88639972D01*
X117834500Y-88579131D01*
X117834500Y-83041488D01*
X117854502Y-82973367D01*
X117906427Y-82928802D01*
X117906165Y-82928334D01*
X117908491Y-82927032D01*
X117908493Y-82927030D01*
X118083276Y-82829147D01*
X118092910Y-82821135D01*
X118214615Y-82719913D01*
X118239345Y-82699345D01*
X118283695Y-82646020D01*
X118365453Y-82547718D01*
X118365455Y-82547715D01*
X118369147Y-82543276D01*
X118458628Y-82383496D01*
X118465510Y-82371208D01*
X118465511Y-82371206D01*
X118468334Y-82366165D01*
X118470190Y-82360698D01*
X118470192Y-82360693D01*
X118531728Y-82179414D01*
X118531729Y-82179409D01*
X118533584Y-82173945D01*
X118534412Y-82168236D01*
X118534413Y-82168231D01*
X118562179Y-81976727D01*
X118562712Y-81973053D01*
X118564232Y-81915000D01*
X118561564Y-81885964D01*
X118886148Y-81885964D01*
X118899424Y-82088522D01*
X118900845Y-82094118D01*
X118900846Y-82094123D01*
X118921119Y-82173945D01*
X118949392Y-82285269D01*
X118951809Y-82290512D01*
X119031959Y-82464371D01*
X119034377Y-82469616D01*
X119037710Y-82474332D01*
X119104103Y-82568276D01*
X119151533Y-82635389D01*
X119155675Y-82639424D01*
X119212637Y-82694913D01*
X119296938Y-82777035D01*
X119465720Y-82889812D01*
X119471023Y-82892090D01*
X119471028Y-82892093D01*
X119511934Y-82909667D01*
X119529217Y-82917092D01*
X119539237Y-82921397D01*
X119593930Y-82966665D01*
X119615500Y-83037165D01*
X119615500Y-86931080D01*
X119612951Y-86955028D01*
X119612872Y-86956693D01*
X119610680Y-86966876D01*
X119611904Y-86977217D01*
X119614627Y-87000223D01*
X119614977Y-87006154D01*
X119615072Y-87006146D01*
X119615500Y-87011324D01*
X119615500Y-87016524D01*
X119616354Y-87021653D01*
X119616354Y-87021656D01*
X119618669Y-87035565D01*
X119619506Y-87041443D01*
X119625530Y-87092341D01*
X119629493Y-87100593D01*
X119630996Y-87109626D01*
X119635943Y-87118795D01*
X119635944Y-87118797D01*
X119655334Y-87154732D01*
X119658031Y-87160025D01*
X119676785Y-87199082D01*
X119676788Y-87199086D01*
X119680219Y-87206232D01*
X119683814Y-87210508D01*
X119685737Y-87212431D01*
X119687509Y-87214363D01*
X119687552Y-87214442D01*
X119687428Y-87214555D01*
X119687904Y-87215095D01*
X119690990Y-87220814D01*
X119698635Y-87227881D01*
X119730586Y-87257416D01*
X119734152Y-87260846D01*
X121611329Y-89138023D01*
X121645355Y-89200335D01*
X121642336Y-89265216D01*
X121618840Y-89339287D01*
X121616841Y-89345588D01*
X121595975Y-89531609D01*
X121611639Y-89718139D01*
X121663235Y-89898075D01*
X121748797Y-90064562D01*
X121752620Y-90069386D01*
X121752623Y-90069390D01*
X121775194Y-90097867D01*
X121865068Y-90211259D01*
X121869762Y-90215254D01*
X121965321Y-90296581D01*
X122007618Y-90332579D01*
X122012996Y-90335585D01*
X122012998Y-90335586D01*
X122062050Y-90363000D01*
X122171018Y-90423900D01*
X122349043Y-90481744D01*
X122534914Y-90503908D01*
X122541049Y-90503436D01*
X122541051Y-90503436D01*
X122715408Y-90490020D01*
X122715413Y-90490019D01*
X122721549Y-90489547D01*
X122727479Y-90487891D01*
X122727481Y-90487891D01*
X122895913Y-90440864D01*
X122895912Y-90440864D01*
X122901841Y-90439209D01*
X122913666Y-90433236D01*
X122996401Y-90391443D01*
X123068921Y-90354810D01*
X123074483Y-90350465D01*
X123211571Y-90243360D01*
X123211572Y-90243360D01*
X123216427Y-90239566D01*
X123338738Y-90097867D01*
X123431198Y-89935108D01*
X123490283Y-89757491D01*
X123513744Y-89571780D01*
X123514118Y-89545000D01*
X123502888Y-89430466D01*
X123516148Y-89360719D01*
X123565010Y-89309212D01*
X123633963Y-89292299D01*
X123701114Y-89315349D01*
X123717382Y-89329076D01*
X129588033Y-95199727D01*
X129603175Y-95218475D01*
X129604290Y-95219700D01*
X129609940Y-95228451D01*
X129618118Y-95234898D01*
X129618120Y-95234900D01*
X129636311Y-95249240D01*
X129640755Y-95253189D01*
X129640817Y-95253115D01*
X129644774Y-95256468D01*
X129648455Y-95260149D01*
X129664165Y-95271376D01*
X129668891Y-95274924D01*
X129709158Y-95306667D01*
X129717795Y-95309700D01*
X129725245Y-95315024D01*
X129735221Y-95318008D01*
X129735222Y-95318008D01*
X129744581Y-95320807D01*
X129774360Y-95329713D01*
X129779997Y-95331545D01*
X129820710Y-95345842D01*
X129828362Y-95348529D01*
X129833927Y-95349011D01*
X129836635Y-95349011D01*
X129839269Y-95349125D01*
X129839367Y-95349154D01*
X129839360Y-95349318D01*
X129840064Y-95349362D01*
X129846289Y-95351224D01*
X129900146Y-95349108D01*
X129905093Y-95349011D01*
X141161569Y-95349011D01*
X141185517Y-95351560D01*
X141187182Y-95351639D01*
X141197365Y-95353831D01*
X141207706Y-95352607D01*
X141230712Y-95349884D01*
X141236643Y-95349534D01*
X141236635Y-95349439D01*
X141241813Y-95349011D01*
X141247013Y-95349011D01*
X141252142Y-95348157D01*
X141252145Y-95348157D01*
X141266054Y-95345842D01*
X141271932Y-95345005D01*
X141312490Y-95340205D01*
X141312491Y-95340205D01*
X141322830Y-95338981D01*
X141331082Y-95335018D01*
X141340115Y-95333515D01*
X141349284Y-95328568D01*
X141349286Y-95328567D01*
X141385221Y-95309177D01*
X141390514Y-95306480D01*
X141429571Y-95287726D01*
X141429575Y-95287723D01*
X141436721Y-95284292D01*
X141440997Y-95280697D01*
X141442920Y-95278774D01*
X141444852Y-95277002D01*
X141444931Y-95276959D01*
X141445044Y-95277083D01*
X141445584Y-95276607D01*
X141451303Y-95273521D01*
X141487906Y-95233924D01*
X141491335Y-95230359D01*
X142360289Y-94361405D01*
X142422601Y-94327379D01*
X142449384Y-94324500D01*
X143824905Y-94324500D01*
X143893026Y-94344502D01*
X143936969Y-94392903D01*
X143973797Y-94464562D01*
X144090068Y-94611259D01*
X144232618Y-94732579D01*
X144237996Y-94735585D01*
X144237998Y-94735586D01*
X144272396Y-94754810D01*
X144396018Y-94823900D01*
X144574043Y-94881744D01*
X144759914Y-94903908D01*
X144766049Y-94903436D01*
X144766051Y-94903436D01*
X144940408Y-94890020D01*
X144940413Y-94890019D01*
X144946549Y-94889547D01*
X144952479Y-94887891D01*
X144952481Y-94887891D01*
X145120913Y-94840864D01*
X145120912Y-94840864D01*
X145126841Y-94839209D01*
X145157148Y-94823900D01*
X145205774Y-94799337D01*
X145293921Y-94754810D01*
X145322376Y-94732579D01*
X145436571Y-94643360D01*
X145436572Y-94643360D01*
X145441427Y-94639566D01*
X145529844Y-94537134D01*
X145559709Y-94502535D01*
X145559710Y-94502533D01*
X145563738Y-94497867D01*
X145656198Y-94335108D01*
X145715283Y-94157491D01*
X145738744Y-93971780D01*
X145739118Y-93945000D01*
X145720852Y-93758706D01*
X145666749Y-93579509D01*
X145657316Y-93561768D01*
X145581764Y-93419674D01*
X145581762Y-93419671D01*
X145578870Y-93414232D01*
X145574980Y-93409462D01*
X145574977Y-93409458D01*
X145464457Y-93273948D01*
X145464454Y-93273945D01*
X145460562Y-93269173D01*
X145316332Y-93149855D01*
X145151673Y-93060824D01*
X145062265Y-93033148D01*
X144978744Y-93007294D01*
X144978741Y-93007293D01*
X144972857Y-93005472D01*
X144966732Y-93004828D01*
X144966731Y-93004828D01*
X144792824Y-92986549D01*
X144792823Y-92986549D01*
X144786696Y-92985905D01*
X144710143Y-92992872D01*
X144606418Y-93002312D01*
X144606415Y-93002313D01*
X144600279Y-93002871D01*
X144594373Y-93004609D01*
X144594369Y-93004610D01*
X144505726Y-93030699D01*
X144420708Y-93055721D01*
X144254822Y-93142444D01*
X144250022Y-93146304D01*
X144250021Y-93146304D01*
X144240718Y-93153784D01*
X144108940Y-93259736D01*
X143988619Y-93403130D01*
X143985655Y-93408522D01*
X143985652Y-93408526D01*
X143935254Y-93500201D01*
X143884908Y-93550259D01*
X143824839Y-93565500D01*
X142293920Y-93565500D01*
X142269973Y-93562951D01*
X142268307Y-93562872D01*
X142258124Y-93560680D01*
X142247782Y-93561904D01*
X142247779Y-93561904D01*
X142224787Y-93564626D01*
X142218846Y-93564977D01*
X142218854Y-93565072D01*
X142213674Y-93565500D01*
X142208476Y-93565500D01*
X142203354Y-93566353D01*
X142203349Y-93566353D01*
X142189427Y-93568671D01*
X142183550Y-93569508D01*
X142177049Y-93570277D01*
X142142997Y-93574307D01*
X142142995Y-93574308D01*
X142132659Y-93575531D01*
X142124410Y-93579492D01*
X142115374Y-93580996D01*
X142106205Y-93585943D01*
X142106203Y-93585944D01*
X142070240Y-93605348D01*
X142064951Y-93608043D01*
X142025915Y-93626788D01*
X142018768Y-93630220D01*
X142014492Y-93633814D01*
X142012552Y-93635754D01*
X142010641Y-93637507D01*
X142010551Y-93637556D01*
X142010439Y-93637433D01*
X142009904Y-93637905D01*
X142004186Y-93640990D01*
X141997119Y-93648635D01*
X141967584Y-93680586D01*
X141964154Y-93684152D01*
X141095200Y-94553106D01*
X141032888Y-94587132D01*
X141006105Y-94590011D01*
X140647882Y-94590011D01*
X140579761Y-94570009D01*
X140533268Y-94516353D01*
X140523164Y-94446079D01*
X140538326Y-94401774D01*
X140573152Y-94340471D01*
X140573154Y-94340466D01*
X140576198Y-94335108D01*
X140635283Y-94157491D01*
X140658744Y-93971780D01*
X140659118Y-93945000D01*
X140640852Y-93758706D01*
X140586749Y-93579509D01*
X140577316Y-93561768D01*
X140501764Y-93419674D01*
X140501762Y-93419671D01*
X140498870Y-93414232D01*
X140494980Y-93409462D01*
X140494977Y-93409458D01*
X140384457Y-93273948D01*
X140384454Y-93273945D01*
X140380562Y-93269173D01*
X140236332Y-93149855D01*
X140071673Y-93060824D01*
X139982265Y-93033148D01*
X139898744Y-93007294D01*
X139898741Y-93007293D01*
X139892857Y-93005472D01*
X139886732Y-93004828D01*
X139886731Y-93004828D01*
X139712824Y-92986549D01*
X139712823Y-92986549D01*
X139706696Y-92985905D01*
X139630143Y-92992872D01*
X139526418Y-93002312D01*
X139526415Y-93002313D01*
X139520279Y-93002871D01*
X139514373Y-93004609D01*
X139514369Y-93004610D01*
X139425726Y-93030699D01*
X139340708Y-93055721D01*
X139174822Y-93142444D01*
X139170022Y-93146304D01*
X139170021Y-93146304D01*
X139160718Y-93153784D01*
X139028940Y-93259736D01*
X138908619Y-93403130D01*
X138905655Y-93408522D01*
X138905652Y-93408526D01*
X138855254Y-93500201D01*
X138804908Y-93550259D01*
X138744839Y-93565500D01*
X130349384Y-93565500D01*
X130281263Y-93545498D01*
X130260289Y-93528595D01*
X128463303Y-91731609D01*
X138740975Y-91731609D01*
X138756639Y-91918139D01*
X138808235Y-92098075D01*
X138893797Y-92264562D01*
X138897620Y-92269386D01*
X138897623Y-92269390D01*
X138920194Y-92297867D01*
X139010068Y-92411259D01*
X139152618Y-92532579D01*
X139157996Y-92535585D01*
X139157998Y-92535586D01*
X139192396Y-92554810D01*
X139316018Y-92623900D01*
X139494043Y-92681744D01*
X139679914Y-92703908D01*
X139686049Y-92703436D01*
X139686051Y-92703436D01*
X139860408Y-92690020D01*
X139860413Y-92690019D01*
X139866549Y-92689547D01*
X139872479Y-92687891D01*
X139872481Y-92687891D01*
X140040913Y-92640864D01*
X140040912Y-92640864D01*
X140046841Y-92639209D01*
X140077148Y-92623900D01*
X140125774Y-92599337D01*
X140213921Y-92554810D01*
X140242376Y-92532579D01*
X140356571Y-92443360D01*
X140356572Y-92443360D01*
X140361427Y-92439566D01*
X140483738Y-92297867D01*
X140576198Y-92135108D01*
X140635283Y-91957491D01*
X140658744Y-91771780D01*
X140659118Y-91745000D01*
X140657805Y-91731609D01*
X143820975Y-91731609D01*
X143836639Y-91918139D01*
X143888235Y-92098075D01*
X143973797Y-92264562D01*
X143977620Y-92269386D01*
X143977623Y-92269390D01*
X144000194Y-92297867D01*
X144090068Y-92411259D01*
X144232618Y-92532579D01*
X144237996Y-92535585D01*
X144237998Y-92535586D01*
X144272396Y-92554810D01*
X144396018Y-92623900D01*
X144574043Y-92681744D01*
X144759914Y-92703908D01*
X144766049Y-92703436D01*
X144766051Y-92703436D01*
X144940408Y-92690020D01*
X144940413Y-92690019D01*
X144946549Y-92689547D01*
X144952479Y-92687891D01*
X144952481Y-92687891D01*
X145120913Y-92640864D01*
X145120912Y-92640864D01*
X145126841Y-92639209D01*
X145157148Y-92623900D01*
X145205774Y-92599337D01*
X145293921Y-92554810D01*
X145322376Y-92532579D01*
X145436571Y-92443360D01*
X145436572Y-92443360D01*
X145441427Y-92439566D01*
X145563738Y-92297867D01*
X145656198Y-92135108D01*
X145715283Y-91957491D01*
X145738744Y-91771780D01*
X145739118Y-91745000D01*
X145720852Y-91558706D01*
X145666749Y-91379509D01*
X145578870Y-91214232D01*
X145574980Y-91209462D01*
X145574977Y-91209458D01*
X145464457Y-91073948D01*
X145464454Y-91073945D01*
X145460562Y-91069173D01*
X145316332Y-90949855D01*
X145151673Y-90860824D01*
X145062265Y-90833148D01*
X144978744Y-90807294D01*
X144978741Y-90807293D01*
X144972857Y-90805472D01*
X144966732Y-90804828D01*
X144966731Y-90804828D01*
X144792824Y-90786549D01*
X144792823Y-90786549D01*
X144786696Y-90785905D01*
X144710143Y-90792872D01*
X144606418Y-90802312D01*
X144606415Y-90802313D01*
X144600279Y-90802871D01*
X144594373Y-90804609D01*
X144594369Y-90804610D01*
X144459075Y-90844429D01*
X144420708Y-90855721D01*
X144254822Y-90942444D01*
X144250022Y-90946304D01*
X144250021Y-90946304D01*
X144240718Y-90953784D01*
X144108940Y-91059736D01*
X143988619Y-91203130D01*
X143985655Y-91208522D01*
X143985652Y-91208526D01*
X143911455Y-91343491D01*
X143898441Y-91367163D01*
X143896580Y-91373030D01*
X143896579Y-91373032D01*
X143892653Y-91385409D01*
X143841841Y-91545588D01*
X143820975Y-91731609D01*
X140657805Y-91731609D01*
X140640852Y-91558706D01*
X140586749Y-91379509D01*
X140498870Y-91214232D01*
X140494980Y-91209462D01*
X140494977Y-91209458D01*
X140384457Y-91073948D01*
X140384454Y-91073945D01*
X140380562Y-91069173D01*
X140236332Y-90949855D01*
X140071673Y-90860824D01*
X139982265Y-90833148D01*
X139898744Y-90807294D01*
X139898741Y-90807293D01*
X139892857Y-90805472D01*
X139886732Y-90804828D01*
X139886731Y-90804828D01*
X139712824Y-90786549D01*
X139712823Y-90786549D01*
X139706696Y-90785905D01*
X139630143Y-90792872D01*
X139526418Y-90802312D01*
X139526415Y-90802313D01*
X139520279Y-90802871D01*
X139514373Y-90804609D01*
X139514369Y-90804610D01*
X139379075Y-90844429D01*
X139340708Y-90855721D01*
X139174822Y-90942444D01*
X139170022Y-90946304D01*
X139170021Y-90946304D01*
X139160718Y-90953784D01*
X139028940Y-91059736D01*
X138908619Y-91203130D01*
X138905655Y-91208522D01*
X138905652Y-91208526D01*
X138831455Y-91343491D01*
X138818441Y-91367163D01*
X138816580Y-91373030D01*
X138816579Y-91373032D01*
X138812653Y-91385409D01*
X138761841Y-91545588D01*
X138740975Y-91731609D01*
X128463303Y-91731609D01*
X126082756Y-89351062D01*
X129183493Y-89351062D01*
X129192789Y-89363077D01*
X129243994Y-89398931D01*
X129253489Y-89404414D01*
X129450947Y-89496490D01*
X129461239Y-89500236D01*
X129671688Y-89556625D01*
X129682481Y-89558528D01*
X129899525Y-89577517D01*
X129910475Y-89577517D01*
X130127519Y-89558528D01*
X130138312Y-89556625D01*
X130231674Y-89531609D01*
X138740975Y-89531609D01*
X138756639Y-89718139D01*
X138808235Y-89898075D01*
X138893797Y-90064562D01*
X138897620Y-90069386D01*
X138897623Y-90069390D01*
X138920194Y-90097867D01*
X139010068Y-90211259D01*
X139014762Y-90215254D01*
X139110321Y-90296581D01*
X139152618Y-90332579D01*
X139157996Y-90335585D01*
X139157998Y-90335586D01*
X139207050Y-90363000D01*
X139316018Y-90423900D01*
X139494043Y-90481744D01*
X139679914Y-90503908D01*
X139686049Y-90503436D01*
X139686051Y-90503436D01*
X139860408Y-90490020D01*
X139860413Y-90490019D01*
X139866549Y-90489547D01*
X139872479Y-90487891D01*
X139872481Y-90487891D01*
X140040913Y-90440864D01*
X140040912Y-90440864D01*
X140046841Y-90439209D01*
X140058666Y-90433236D01*
X140141401Y-90391443D01*
X140213921Y-90354810D01*
X140219483Y-90350465D01*
X140356571Y-90243360D01*
X140356572Y-90243360D01*
X140361427Y-90239566D01*
X140483738Y-90097867D01*
X140576198Y-89935108D01*
X140635283Y-89757491D01*
X140658744Y-89571780D01*
X140659118Y-89545000D01*
X140657805Y-89531609D01*
X143820975Y-89531609D01*
X143836639Y-89718139D01*
X143888235Y-89898075D01*
X143973797Y-90064562D01*
X143977620Y-90069386D01*
X143977623Y-90069390D01*
X144000194Y-90097867D01*
X144090068Y-90211259D01*
X144094762Y-90215254D01*
X144190321Y-90296581D01*
X144232618Y-90332579D01*
X144237996Y-90335585D01*
X144237998Y-90335586D01*
X144287050Y-90363000D01*
X144396018Y-90423900D01*
X144574043Y-90481744D01*
X144759914Y-90503908D01*
X144766049Y-90503436D01*
X144766051Y-90503436D01*
X144940408Y-90490020D01*
X144940413Y-90490019D01*
X144946549Y-90489547D01*
X144952479Y-90487891D01*
X144952481Y-90487891D01*
X145120913Y-90440864D01*
X145120912Y-90440864D01*
X145126841Y-90439209D01*
X145138666Y-90433236D01*
X145221401Y-90391443D01*
X145293921Y-90354810D01*
X145299483Y-90350465D01*
X145436571Y-90243360D01*
X145436572Y-90243360D01*
X145441427Y-90239566D01*
X145563738Y-90097867D01*
X145656198Y-89935108D01*
X145715283Y-89757491D01*
X145738744Y-89571780D01*
X145739118Y-89545000D01*
X145720852Y-89358706D01*
X145718544Y-89351062D01*
X151408493Y-89351062D01*
X151417789Y-89363077D01*
X151468994Y-89398931D01*
X151478489Y-89404414D01*
X151675947Y-89496490D01*
X151686239Y-89500236D01*
X151896688Y-89556625D01*
X151907481Y-89558528D01*
X152124525Y-89577517D01*
X152135475Y-89577517D01*
X152352519Y-89558528D01*
X152363312Y-89556625D01*
X152573761Y-89500236D01*
X152584053Y-89496490D01*
X152781511Y-89404414D01*
X152791006Y-89398931D01*
X152843048Y-89362491D01*
X152851424Y-89352012D01*
X152844356Y-89338566D01*
X152142812Y-88637022D01*
X152128868Y-88629408D01*
X152127035Y-88629539D01*
X152120420Y-88633790D01*
X151414923Y-89339287D01*
X151408493Y-89351062D01*
X145718544Y-89351062D01*
X145666749Y-89179509D01*
X145653228Y-89154079D01*
X145581764Y-89019674D01*
X145581762Y-89019671D01*
X145578870Y-89014232D01*
X145574980Y-89009462D01*
X145574977Y-89009458D01*
X145464457Y-88873948D01*
X145464454Y-88873945D01*
X145460562Y-88869173D01*
X145451742Y-88861876D01*
X145364257Y-88789502D01*
X145316332Y-88749855D01*
X145151673Y-88660824D01*
X145050183Y-88629408D01*
X144978744Y-88607294D01*
X144978741Y-88607293D01*
X144972857Y-88605472D01*
X144966732Y-88604828D01*
X144966731Y-88604828D01*
X144792824Y-88586549D01*
X144792823Y-88586549D01*
X144786696Y-88585905D01*
X144710143Y-88592872D01*
X144606418Y-88602312D01*
X144606415Y-88602313D01*
X144600279Y-88602871D01*
X144594373Y-88604609D01*
X144594369Y-88604610D01*
X144497660Y-88633073D01*
X144420708Y-88655721D01*
X144254822Y-88742444D01*
X144250022Y-88746304D01*
X144250021Y-88746304D01*
X144240718Y-88753784D01*
X144108940Y-88859736D01*
X143988619Y-89003130D01*
X143985655Y-89008522D01*
X143985652Y-89008526D01*
X143926670Y-89115814D01*
X143898441Y-89167163D01*
X143896580Y-89173030D01*
X143896579Y-89173032D01*
X143843840Y-89339287D01*
X143841841Y-89345588D01*
X143820975Y-89531609D01*
X140657805Y-89531609D01*
X140640852Y-89358706D01*
X140586749Y-89179509D01*
X140573228Y-89154079D01*
X140501764Y-89019674D01*
X140501762Y-89019671D01*
X140498870Y-89014232D01*
X140494980Y-89009462D01*
X140494977Y-89009458D01*
X140384457Y-88873948D01*
X140384454Y-88873945D01*
X140380562Y-88869173D01*
X140371742Y-88861876D01*
X140284257Y-88789502D01*
X140236332Y-88749855D01*
X140071673Y-88660824D01*
X139970183Y-88629408D01*
X139898744Y-88607294D01*
X139898741Y-88607293D01*
X139892857Y-88605472D01*
X139886732Y-88604828D01*
X139886731Y-88604828D01*
X139712824Y-88586549D01*
X139712823Y-88586549D01*
X139706696Y-88585905D01*
X139630143Y-88592872D01*
X139526418Y-88602312D01*
X139526415Y-88602313D01*
X139520279Y-88602871D01*
X139514373Y-88604609D01*
X139514369Y-88604610D01*
X139417660Y-88633073D01*
X139340708Y-88655721D01*
X139174822Y-88742444D01*
X139170022Y-88746304D01*
X139170021Y-88746304D01*
X139160718Y-88753784D01*
X139028940Y-88859736D01*
X138908619Y-89003130D01*
X138905655Y-89008522D01*
X138905652Y-89008526D01*
X138846670Y-89115814D01*
X138818441Y-89167163D01*
X138816580Y-89173030D01*
X138816579Y-89173032D01*
X138763840Y-89339287D01*
X138761841Y-89345588D01*
X138740975Y-89531609D01*
X130231674Y-89531609D01*
X130348761Y-89500236D01*
X130359053Y-89496490D01*
X130556511Y-89404414D01*
X130566006Y-89398931D01*
X130618048Y-89362491D01*
X130626424Y-89352012D01*
X130619356Y-89338566D01*
X129917812Y-88637022D01*
X129903868Y-88629408D01*
X129902035Y-88629539D01*
X129895420Y-88633790D01*
X129189923Y-89339287D01*
X129183493Y-89351062D01*
X126082756Y-89351062D01*
X125491405Y-88759711D01*
X125457379Y-88697399D01*
X125454500Y-88670616D01*
X125454500Y-88250206D01*
X126845501Y-88250206D01*
X126862806Y-88456278D01*
X126919807Y-88655066D01*
X126922625Y-88660548D01*
X126922626Y-88660552D01*
X127011514Y-88833509D01*
X127011517Y-88833513D01*
X127014334Y-88838995D01*
X127142786Y-89001061D01*
X127147479Y-89005055D01*
X127147480Y-89005056D01*
X127277621Y-89115814D01*
X127300271Y-89135091D01*
X127480789Y-89235980D01*
X127677466Y-89299884D01*
X127882809Y-89324370D01*
X127888944Y-89323898D01*
X127888946Y-89323898D01*
X128082856Y-89308977D01*
X128082860Y-89308976D01*
X128088998Y-89308504D01*
X128288178Y-89252892D01*
X128293682Y-89250112D01*
X128293684Y-89250111D01*
X128467262Y-89162431D01*
X128467264Y-89162430D01*
X128472763Y-89159652D01*
X128635722Y-89032334D01*
X128654306Y-89010805D01*
X128713958Y-88972307D01*
X128784954Y-88972171D01*
X128814234Y-88987378D01*
X128815854Y-88987545D01*
X128831434Y-88979356D01*
X129532978Y-88277812D01*
X129539356Y-88266132D01*
X130269408Y-88266132D01*
X130269539Y-88267965D01*
X130273790Y-88274580D01*
X130979287Y-88980077D01*
X130991062Y-88986507D01*
X131003077Y-88977211D01*
X131038931Y-88926006D01*
X131044414Y-88916511D01*
X131136490Y-88719053D01*
X131140236Y-88708761D01*
X131196625Y-88498312D01*
X131198528Y-88487519D01*
X131217517Y-88270475D01*
X131217517Y-88259525D01*
X131198528Y-88042481D01*
X131196625Y-88031688D01*
X131140236Y-87821239D01*
X131136490Y-87810947D01*
X131044414Y-87613489D01*
X131038931Y-87603994D01*
X131002491Y-87551952D01*
X130992012Y-87543576D01*
X130978566Y-87550644D01*
X130277022Y-88252188D01*
X130269408Y-88266132D01*
X129539356Y-88266132D01*
X129540592Y-88263868D01*
X129540461Y-88262035D01*
X129536210Y-88255420D01*
X128830713Y-87549923D01*
X128816769Y-87542309D01*
X128811129Y-87542712D01*
X128762849Y-87561597D01*
X128693245Y-87547608D01*
X128662462Y-87524860D01*
X128660760Y-87523146D01*
X128656863Y-87518368D01*
X128546900Y-87427399D01*
X128502271Y-87390478D01*
X128502266Y-87390475D01*
X128497522Y-87386550D01*
X128492102Y-87383620D01*
X128492097Y-87383616D01*
X128475573Y-87374682D01*
X128425163Y-87324688D01*
X128409500Y-87263846D01*
X128409500Y-86990500D01*
X128429502Y-86922379D01*
X128483158Y-86875886D01*
X128535500Y-86864500D01*
X129245041Y-86864500D01*
X129313162Y-86884502D01*
X129359655Y-86938158D01*
X129369759Y-87008432D01*
X129340265Y-87073012D01*
X129298291Y-87104695D01*
X129253489Y-87125586D01*
X129243994Y-87131069D01*
X129191952Y-87167509D01*
X129183576Y-87177988D01*
X129190644Y-87191434D01*
X129892188Y-87892978D01*
X129906132Y-87900592D01*
X129907965Y-87900461D01*
X129914580Y-87896210D01*
X130620077Y-87190713D01*
X130626507Y-87178938D01*
X130617211Y-87166923D01*
X130566006Y-87131069D01*
X130556511Y-87125586D01*
X130511709Y-87104695D01*
X130458424Y-87057778D01*
X130438963Y-86989500D01*
X130459505Y-86921540D01*
X130513528Y-86875475D01*
X130564959Y-86864500D01*
X149344839Y-86864500D01*
X149412960Y-86884502D01*
X149433934Y-86901405D01*
X149588595Y-87056066D01*
X149622621Y-87118378D01*
X149625500Y-87145161D01*
X149625500Y-87262480D01*
X149605498Y-87330601D01*
X149560287Y-87371939D01*
X149560416Y-87372136D01*
X149559205Y-87372928D01*
X149557881Y-87374139D01*
X149549801Y-87378363D01*
X149388635Y-87507943D01*
X149255708Y-87666360D01*
X149156082Y-87847578D01*
X149093553Y-88044696D01*
X149070501Y-88250206D01*
X149087806Y-88456278D01*
X149144807Y-88655066D01*
X149147625Y-88660548D01*
X149147626Y-88660552D01*
X149236514Y-88833509D01*
X149236517Y-88833513D01*
X149239334Y-88838995D01*
X149367786Y-89001061D01*
X149372479Y-89005055D01*
X149372480Y-89005056D01*
X149502621Y-89115814D01*
X149525271Y-89135091D01*
X149705789Y-89235980D01*
X149902466Y-89299884D01*
X150107809Y-89324370D01*
X150113944Y-89323898D01*
X150113946Y-89323898D01*
X150307856Y-89308977D01*
X150307860Y-89308976D01*
X150313998Y-89308504D01*
X150513178Y-89252892D01*
X150518682Y-89250112D01*
X150518684Y-89250111D01*
X150692262Y-89162431D01*
X150692264Y-89162430D01*
X150697763Y-89159652D01*
X150860722Y-89032334D01*
X150879306Y-89010805D01*
X150938958Y-88972307D01*
X151009954Y-88972171D01*
X151039234Y-88987378D01*
X151040854Y-88987545D01*
X151056434Y-88979356D01*
X151757978Y-88277812D01*
X151764356Y-88266132D01*
X152494408Y-88266132D01*
X152494539Y-88267965D01*
X152498790Y-88274580D01*
X153204287Y-88980077D01*
X153216062Y-88986507D01*
X153228077Y-88977211D01*
X153263931Y-88926006D01*
X153269414Y-88916511D01*
X153361490Y-88719053D01*
X153365236Y-88708761D01*
X153421625Y-88498312D01*
X153423528Y-88487519D01*
X153442517Y-88270475D01*
X153442517Y-88259525D01*
X153423528Y-88042481D01*
X153421625Y-88031688D01*
X153365236Y-87821239D01*
X153361490Y-87810947D01*
X153269414Y-87613489D01*
X153263931Y-87603994D01*
X153227491Y-87551952D01*
X153217012Y-87543576D01*
X153203566Y-87550644D01*
X152502022Y-88252188D01*
X152494408Y-88266132D01*
X151764356Y-88266132D01*
X151765592Y-88263868D01*
X151765461Y-88262035D01*
X151761210Y-88255420D01*
X151055713Y-87549923D01*
X151041769Y-87542309D01*
X151036129Y-87542712D01*
X150987849Y-87561597D01*
X150918245Y-87547608D01*
X150887462Y-87524860D01*
X150885760Y-87523146D01*
X150881863Y-87518368D01*
X150771900Y-87427399D01*
X150727271Y-87390478D01*
X150727266Y-87390475D01*
X150722522Y-87386550D01*
X150717102Y-87383620D01*
X150717097Y-87383616D01*
X150700573Y-87374682D01*
X150650163Y-87324688D01*
X150634500Y-87263846D01*
X150634500Y-87177988D01*
X151408576Y-87177988D01*
X151415644Y-87191434D01*
X152117188Y-87892978D01*
X152131132Y-87900592D01*
X152132965Y-87900461D01*
X152139580Y-87896210D01*
X152845077Y-87190713D01*
X152851507Y-87178938D01*
X152842211Y-87166923D01*
X152791006Y-87131069D01*
X152781511Y-87125586D01*
X152584053Y-87033510D01*
X152573761Y-87029764D01*
X152363312Y-86973375D01*
X152352519Y-86971472D01*
X152135475Y-86952483D01*
X152124525Y-86952483D01*
X151907481Y-86971472D01*
X151896688Y-86973375D01*
X151686239Y-87029764D01*
X151675947Y-87033510D01*
X151478489Y-87125586D01*
X151468994Y-87131069D01*
X151416952Y-87167509D01*
X151408576Y-87177988D01*
X150634500Y-87177988D01*
X150634500Y-86954624D01*
X150635841Y-86942619D01*
X150635345Y-86942579D01*
X150636065Y-86933632D01*
X150638046Y-86924876D01*
X150634742Y-86871619D01*
X150634500Y-86863817D01*
X150634500Y-86847774D01*
X150633034Y-86837536D01*
X150632004Y-86827481D01*
X150629654Y-86789601D01*
X150629654Y-86789599D01*
X150629098Y-86780642D01*
X150626051Y-86772201D01*
X150625372Y-86768923D01*
X150621416Y-86753055D01*
X150620473Y-86749831D01*
X150619201Y-86740948D01*
X150615487Y-86732779D01*
X150615485Y-86732773D01*
X150599775Y-86698221D01*
X150595961Y-86688852D01*
X150583077Y-86653163D01*
X150580028Y-86644716D01*
X150574731Y-86637466D01*
X150573154Y-86634499D01*
X150564907Y-86620386D01*
X150563102Y-86617563D01*
X150559388Y-86609395D01*
X150528753Y-86573842D01*
X150522475Y-86565936D01*
X150514527Y-86555056D01*
X150503665Y-86544194D01*
X150497307Y-86537347D01*
X150465056Y-86499918D01*
X150457521Y-86495034D01*
X150450949Y-86489301D01*
X150439545Y-86480074D01*
X150012677Y-86053206D01*
X150005135Y-86043766D01*
X150004755Y-86044089D01*
X149998937Y-86037253D01*
X149994147Y-86029661D01*
X149954140Y-85994328D01*
X149948454Y-85988983D01*
X149937120Y-85977649D01*
X149928845Y-85971447D01*
X149921000Y-85965060D01*
X149892557Y-85939940D01*
X149885830Y-85933999D01*
X149877708Y-85930186D01*
X149874907Y-85928346D01*
X149860912Y-85919937D01*
X149857949Y-85918315D01*
X149850764Y-85912930D01*
X149842354Y-85909777D01*
X149842352Y-85909776D01*
X149806818Y-85896454D01*
X149797502Y-85892529D01*
X149755018Y-85872583D01*
X149746144Y-85871201D01*
X149742917Y-85870215D01*
X149727134Y-85866075D01*
X149723856Y-85865354D01*
X149715448Y-85862202D01*
X149701691Y-85861180D01*
X149668643Y-85858724D01*
X149658596Y-85857570D01*
X149650114Y-85856249D01*
X149650111Y-85856249D01*
X149645303Y-85855500D01*
X149629938Y-85855500D01*
X149620601Y-85855154D01*
X149613048Y-85854593D01*
X149571333Y-85851493D01*
X149562558Y-85853366D01*
X149553862Y-85853959D01*
X149539262Y-85855500D01*
X128340624Y-85855500D01*
X128328619Y-85854159D01*
X128328579Y-85854655D01*
X128319632Y-85853935D01*
X128310876Y-85851954D01*
X128267339Y-85854655D01*
X128257619Y-85855258D01*
X128249817Y-85855500D01*
X128233774Y-85855500D01*
X128229344Y-85856135D01*
X128229337Y-85856135D01*
X128223536Y-85856966D01*
X128213481Y-85857996D01*
X128175601Y-85860346D01*
X128175599Y-85860346D01*
X128166642Y-85860902D01*
X128158201Y-85863949D01*
X128154923Y-85864628D01*
X128139055Y-85868584D01*
X128135831Y-85869527D01*
X128126948Y-85870799D01*
X128118779Y-85874513D01*
X128118773Y-85874515D01*
X128084221Y-85890225D01*
X128074853Y-85894039D01*
X128030716Y-85909972D01*
X128023466Y-85915269D01*
X128020499Y-85916846D01*
X128006386Y-85925093D01*
X128003563Y-85926898D01*
X127995395Y-85930612D01*
X127988598Y-85936469D01*
X127988596Y-85936470D01*
X127959847Y-85961243D01*
X127951936Y-85967525D01*
X127941056Y-85975473D01*
X127930194Y-85986335D01*
X127923348Y-85992693D01*
X127885918Y-86024944D01*
X127881034Y-86032479D01*
X127875301Y-86039051D01*
X127866074Y-86050455D01*
X127598206Y-86318323D01*
X127588766Y-86325865D01*
X127589089Y-86326245D01*
X127582253Y-86332063D01*
X127574661Y-86336853D01*
X127568719Y-86343581D01*
X127539329Y-86376859D01*
X127533983Y-86382546D01*
X127522649Y-86393880D01*
X127519964Y-86397463D01*
X127519962Y-86397465D01*
X127516447Y-86402155D01*
X127510062Y-86409998D01*
X127478999Y-86445170D01*
X127475186Y-86453292D01*
X127473346Y-86456093D01*
X127464937Y-86470088D01*
X127463315Y-86473051D01*
X127457930Y-86480236D01*
X127454777Y-86488646D01*
X127454776Y-86488648D01*
X127441454Y-86524182D01*
X127437530Y-86533495D01*
X127417583Y-86575982D01*
X127416201Y-86584856D01*
X127415215Y-86588083D01*
X127411075Y-86603866D01*
X127410354Y-86607144D01*
X127407202Y-86615552D01*
X127406537Y-86624503D01*
X127403724Y-86662357D01*
X127402570Y-86672404D01*
X127400500Y-86685697D01*
X127400500Y-86701062D01*
X127400154Y-86710399D01*
X127396493Y-86759667D01*
X127398366Y-86768442D01*
X127398959Y-86777138D01*
X127400500Y-86791738D01*
X127400500Y-87262480D01*
X127380498Y-87330601D01*
X127335287Y-87371939D01*
X127335416Y-87372136D01*
X127334205Y-87372928D01*
X127332881Y-87374139D01*
X127324801Y-87378363D01*
X127163635Y-87507943D01*
X127030708Y-87666360D01*
X126931082Y-87847578D01*
X126868553Y-88044696D01*
X126845501Y-88250206D01*
X125454500Y-88250206D01*
X125454500Y-83041488D01*
X125474502Y-82973367D01*
X125526427Y-82928802D01*
X125526165Y-82928334D01*
X125528491Y-82927032D01*
X125528493Y-82927030D01*
X125703276Y-82829147D01*
X125712910Y-82821135D01*
X125834615Y-82719913D01*
X125859345Y-82699345D01*
X125903695Y-82646020D01*
X125985453Y-82547718D01*
X125985455Y-82547715D01*
X125989147Y-82543276D01*
X126078628Y-82383496D01*
X126085510Y-82371208D01*
X126085511Y-82371206D01*
X126088334Y-82366165D01*
X126090190Y-82360698D01*
X126090192Y-82360693D01*
X126151728Y-82179414D01*
X126151729Y-82179409D01*
X126153584Y-82173945D01*
X126154412Y-82168236D01*
X126154413Y-82168231D01*
X126182179Y-81976727D01*
X126182712Y-81973053D01*
X126184232Y-81915000D01*
X126181564Y-81885964D01*
X126506148Y-81885964D01*
X126519424Y-82088522D01*
X126520845Y-82094118D01*
X126520846Y-82094123D01*
X126541119Y-82173945D01*
X126569392Y-82285269D01*
X126571809Y-82290512D01*
X126651959Y-82464371D01*
X126654377Y-82469616D01*
X126657710Y-82474332D01*
X126724103Y-82568276D01*
X126771533Y-82635389D01*
X126775675Y-82639424D01*
X126832637Y-82694913D01*
X126916938Y-82777035D01*
X127085720Y-82889812D01*
X127091023Y-82892090D01*
X127091026Y-82892092D01*
X127266921Y-82967662D01*
X127272228Y-82969942D01*
X127345244Y-82986464D01*
X127464579Y-83013467D01*
X127464584Y-83013468D01*
X127470216Y-83014742D01*
X127475987Y-83014969D01*
X127475989Y-83014969D01*
X127535756Y-83017317D01*
X127673053Y-83022712D01*
X127780348Y-83007155D01*
X127868231Y-82994413D01*
X127868236Y-82994412D01*
X127873945Y-82993584D01*
X127879409Y-82991729D01*
X127879414Y-82991728D01*
X128060693Y-82930192D01*
X128060698Y-82930190D01*
X128066165Y-82928334D01*
X128086613Y-82916883D01*
X128157603Y-82877126D01*
X128243276Y-82829147D01*
X128252910Y-82821135D01*
X128374615Y-82719913D01*
X128399345Y-82699345D01*
X128443695Y-82646020D01*
X128525453Y-82547718D01*
X128525455Y-82547715D01*
X128529147Y-82543276D01*
X128618628Y-82383496D01*
X128625510Y-82371208D01*
X128625511Y-82371206D01*
X128628334Y-82366165D01*
X128630720Y-82359135D01*
X128631170Y-82358496D01*
X128632541Y-82355416D01*
X128633146Y-82355685D01*
X128671553Y-82301059D01*
X128737305Y-82274278D01*
X128807098Y-82287295D01*
X128858773Y-82335980D01*
X128866777Y-82352229D01*
X128936770Y-82524603D01*
X128941413Y-82533794D01*
X129052694Y-82715388D01*
X129058777Y-82723699D01*
X129198213Y-82884667D01*
X129205580Y-82891883D01*
X129369434Y-83027916D01*
X129377881Y-83033831D01*
X129561756Y-83141279D01*
X129571042Y-83145729D01*
X129770001Y-83221703D01*
X129779899Y-83224579D01*
X129883250Y-83245606D01*
X129897299Y-83244410D01*
X129901000Y-83234065D01*
X129901000Y-83233517D01*
X130409000Y-83233517D01*
X130413064Y-83247359D01*
X130426478Y-83249393D01*
X130433184Y-83248534D01*
X130443262Y-83246392D01*
X130647255Y-83185191D01*
X130656842Y-83181433D01*
X130848095Y-83087739D01*
X130856945Y-83082464D01*
X131030328Y-82958792D01*
X131038200Y-82952139D01*
X131189052Y-82801812D01*
X131195730Y-82793965D01*
X131320003Y-82621020D01*
X131325310Y-82612188D01*
X131351544Y-82559109D01*
X131399658Y-82506903D01*
X131468360Y-82488996D01*
X131535836Y-82511075D01*
X131580664Y-82566129D01*
X131590501Y-82614937D01*
X131590501Y-82790066D01*
X131596681Y-82821137D01*
X131602512Y-82850453D01*
X131605266Y-82864301D01*
X131612161Y-82874620D01*
X131612162Y-82874622D01*
X131652516Y-82935015D01*
X131661516Y-82948484D01*
X131745699Y-83004734D01*
X131819933Y-83019500D01*
X132694858Y-83019500D01*
X133570066Y-83019499D01*
X133605818Y-83012388D01*
X133632126Y-83007156D01*
X133632128Y-83007155D01*
X133644301Y-83004734D01*
X133654621Y-82997839D01*
X133654622Y-82997838D01*
X133718168Y-82955377D01*
X133728484Y-82948484D01*
X133776163Y-82877128D01*
X133777839Y-82874620D01*
X133784734Y-82864301D01*
X133799500Y-82790067D01*
X133799499Y-81910964D01*
X138571148Y-81910964D01*
X138584424Y-82113522D01*
X138585845Y-82119118D01*
X138585846Y-82119123D01*
X138606119Y-82198945D01*
X138634392Y-82310269D01*
X138636809Y-82315512D01*
X138674010Y-82396208D01*
X138719377Y-82494616D01*
X138722710Y-82499332D01*
X138821717Y-82639424D01*
X138836533Y-82660389D01*
X138981938Y-82802035D01*
X139150720Y-82914812D01*
X139156023Y-82917090D01*
X139156026Y-82917092D01*
X139329747Y-82991728D01*
X139337228Y-82994942D01*
X139410244Y-83011464D01*
X139529579Y-83038467D01*
X139529584Y-83038468D01*
X139535216Y-83039742D01*
X139540987Y-83039969D01*
X139540989Y-83039969D01*
X139600756Y-83042317D01*
X139738053Y-83047712D01*
X139845348Y-83032155D01*
X139933231Y-83019413D01*
X139933236Y-83019412D01*
X139938945Y-83018584D01*
X139944409Y-83016729D01*
X139944414Y-83016728D01*
X140125693Y-82955192D01*
X140125698Y-82955190D01*
X140131165Y-82953334D01*
X140139826Y-82948484D01*
X140209138Y-82909667D01*
X140308276Y-82854147D01*
X140334939Y-82831972D01*
X140435696Y-82748172D01*
X140464345Y-82724345D01*
X140534547Y-82639937D01*
X140590453Y-82572718D01*
X140590455Y-82572715D01*
X140594147Y-82568276D01*
X140693334Y-82391165D01*
X140695190Y-82385698D01*
X140695192Y-82385693D01*
X140756728Y-82204414D01*
X140756729Y-82204409D01*
X140758584Y-82198945D01*
X140759412Y-82193236D01*
X140759413Y-82193231D01*
X140787179Y-82001727D01*
X140787712Y-81998053D01*
X140789232Y-81940000D01*
X140786564Y-81910964D01*
X141111148Y-81910964D01*
X141124424Y-82113522D01*
X141125845Y-82119118D01*
X141125846Y-82119123D01*
X141146119Y-82198945D01*
X141174392Y-82310269D01*
X141176809Y-82315512D01*
X141214010Y-82396208D01*
X141259377Y-82494616D01*
X141262710Y-82499332D01*
X141361717Y-82639424D01*
X141376533Y-82660389D01*
X141521938Y-82802035D01*
X141690720Y-82914812D01*
X141696023Y-82917090D01*
X141696026Y-82917092D01*
X141869747Y-82991728D01*
X141877228Y-82994942D01*
X141950244Y-83011464D01*
X142069579Y-83038467D01*
X142069584Y-83038468D01*
X142075216Y-83039742D01*
X142080987Y-83039969D01*
X142080989Y-83039969D01*
X142140756Y-83042317D01*
X142278053Y-83047712D01*
X142385348Y-83032155D01*
X142473231Y-83019413D01*
X142473236Y-83019412D01*
X142478945Y-83018584D01*
X142484409Y-83016729D01*
X142484414Y-83016728D01*
X142665693Y-82955192D01*
X142665698Y-82955190D01*
X142671165Y-82953334D01*
X142679826Y-82948484D01*
X142749138Y-82909667D01*
X142848276Y-82854147D01*
X142874939Y-82831972D01*
X142975696Y-82748172D01*
X143004345Y-82724345D01*
X143074547Y-82639937D01*
X143130453Y-82572718D01*
X143130455Y-82572715D01*
X143134147Y-82568276D01*
X143233334Y-82391165D01*
X143235190Y-82385698D01*
X143235192Y-82385693D01*
X143296728Y-82204414D01*
X143296729Y-82204409D01*
X143298584Y-82198945D01*
X143299412Y-82193236D01*
X143299413Y-82193231D01*
X143327179Y-82001727D01*
X143327712Y-81998053D01*
X143329232Y-81940000D01*
X143326564Y-81910964D01*
X143651148Y-81910964D01*
X143664424Y-82113522D01*
X143665845Y-82119118D01*
X143665846Y-82119123D01*
X143686119Y-82198945D01*
X143714392Y-82310269D01*
X143716809Y-82315512D01*
X143754010Y-82396208D01*
X143799377Y-82494616D01*
X143802710Y-82499332D01*
X143901717Y-82639424D01*
X143916533Y-82660389D01*
X144061938Y-82802035D01*
X144230720Y-82914812D01*
X144236023Y-82917090D01*
X144236026Y-82917092D01*
X144409747Y-82991728D01*
X144417228Y-82994942D01*
X144490244Y-83011464D01*
X144609579Y-83038467D01*
X144609584Y-83038468D01*
X144615216Y-83039742D01*
X144620987Y-83039969D01*
X144620989Y-83039969D01*
X144680756Y-83042317D01*
X144818053Y-83047712D01*
X144925348Y-83032155D01*
X145013231Y-83019413D01*
X145013236Y-83019412D01*
X145018945Y-83018584D01*
X145024409Y-83016729D01*
X145024414Y-83016728D01*
X145205693Y-82955192D01*
X145205698Y-82955190D01*
X145211165Y-82953334D01*
X145219826Y-82948484D01*
X145289138Y-82909667D01*
X145388276Y-82854147D01*
X145414939Y-82831972D01*
X145515696Y-82748172D01*
X145544345Y-82724345D01*
X145614547Y-82639937D01*
X145670453Y-82572718D01*
X145670455Y-82572715D01*
X145674147Y-82568276D01*
X145773334Y-82391165D01*
X145775190Y-82385698D01*
X145775192Y-82385693D01*
X145836728Y-82204414D01*
X145836729Y-82204409D01*
X145838584Y-82198945D01*
X145839412Y-82193236D01*
X145839413Y-82193231D01*
X145867179Y-82001727D01*
X145867712Y-81998053D01*
X145869232Y-81940000D01*
X145866564Y-81910964D01*
X146191148Y-81910964D01*
X146204424Y-82113522D01*
X146205845Y-82119118D01*
X146205846Y-82119123D01*
X146226119Y-82198945D01*
X146254392Y-82310269D01*
X146256809Y-82315512D01*
X146294010Y-82396208D01*
X146339377Y-82494616D01*
X146342710Y-82499332D01*
X146441717Y-82639424D01*
X146456533Y-82660389D01*
X146601938Y-82802035D01*
X146770720Y-82914812D01*
X146776023Y-82917090D01*
X146776026Y-82917092D01*
X146949747Y-82991728D01*
X146957228Y-82994942D01*
X147030244Y-83011464D01*
X147149579Y-83038467D01*
X147149584Y-83038468D01*
X147155216Y-83039742D01*
X147160987Y-83039969D01*
X147160989Y-83039969D01*
X147220756Y-83042317D01*
X147358053Y-83047712D01*
X147465348Y-83032155D01*
X147553231Y-83019413D01*
X147553236Y-83019412D01*
X147558945Y-83018584D01*
X147564409Y-83016729D01*
X147564414Y-83016728D01*
X147745693Y-82955192D01*
X147745698Y-82955190D01*
X147751165Y-82953334D01*
X147759826Y-82948484D01*
X147829138Y-82909667D01*
X147928276Y-82854147D01*
X147954939Y-82831972D01*
X148055696Y-82748172D01*
X148084345Y-82724345D01*
X148154547Y-82639937D01*
X148210453Y-82572718D01*
X148210455Y-82572715D01*
X148214147Y-82568276D01*
X148313334Y-82391165D01*
X148315190Y-82385698D01*
X148315192Y-82385693D01*
X148376728Y-82204414D01*
X148376729Y-82204409D01*
X148378584Y-82198945D01*
X148379412Y-82193236D01*
X148379413Y-82193231D01*
X148407179Y-82001727D01*
X148407712Y-81998053D01*
X148409232Y-81940000D01*
X148406564Y-81910964D01*
X148731148Y-81910964D01*
X148744424Y-82113522D01*
X148745845Y-82119118D01*
X148745846Y-82119123D01*
X148766119Y-82198945D01*
X148794392Y-82310269D01*
X148796809Y-82315512D01*
X148834010Y-82396208D01*
X148879377Y-82494616D01*
X148882710Y-82499332D01*
X148981717Y-82639424D01*
X148996533Y-82660389D01*
X149141938Y-82802035D01*
X149310720Y-82914812D01*
X149316023Y-82917090D01*
X149316026Y-82917092D01*
X149489747Y-82991728D01*
X149497228Y-82994942D01*
X149570244Y-83011464D01*
X149689579Y-83038467D01*
X149689584Y-83038468D01*
X149695216Y-83039742D01*
X149700987Y-83039969D01*
X149700989Y-83039969D01*
X149760756Y-83042317D01*
X149898053Y-83047712D01*
X150005348Y-83032155D01*
X150093231Y-83019413D01*
X150093236Y-83019412D01*
X150098945Y-83018584D01*
X150104409Y-83016729D01*
X150104414Y-83016728D01*
X150285693Y-82955192D01*
X150285698Y-82955190D01*
X150291165Y-82953334D01*
X150299826Y-82948484D01*
X150369138Y-82909667D01*
X150468276Y-82854147D01*
X150494939Y-82831972D01*
X150595696Y-82748172D01*
X150624345Y-82724345D01*
X150694547Y-82639937D01*
X150750453Y-82572718D01*
X150750455Y-82572715D01*
X150754147Y-82568276D01*
X150853334Y-82391165D01*
X150855720Y-82384135D01*
X150856170Y-82383496D01*
X150857541Y-82380416D01*
X150858146Y-82380685D01*
X150896553Y-82326059D01*
X150962305Y-82299278D01*
X151032098Y-82312295D01*
X151083773Y-82360980D01*
X151091777Y-82377229D01*
X151161770Y-82549603D01*
X151166413Y-82558794D01*
X151277694Y-82740388D01*
X151283777Y-82748699D01*
X151423213Y-82909667D01*
X151430580Y-82916883D01*
X151594434Y-83052916D01*
X151602881Y-83058831D01*
X151786756Y-83166279D01*
X151796042Y-83170729D01*
X151995001Y-83246703D01*
X152004899Y-83249579D01*
X152108250Y-83270606D01*
X152122299Y-83269410D01*
X152126000Y-83259065D01*
X152126000Y-83258517D01*
X152634000Y-83258517D01*
X152638064Y-83272359D01*
X152651478Y-83274393D01*
X152658184Y-83273534D01*
X152668262Y-83271392D01*
X152872255Y-83210191D01*
X152881842Y-83206433D01*
X153073095Y-83112739D01*
X153081945Y-83107464D01*
X153255328Y-82983792D01*
X153263200Y-82977139D01*
X153414052Y-82826812D01*
X153420730Y-82818965D01*
X153545003Y-82646020D01*
X153550310Y-82637188D01*
X153576544Y-82584109D01*
X153624658Y-82531903D01*
X153693360Y-82513996D01*
X153760836Y-82536075D01*
X153805664Y-82591129D01*
X153815501Y-82639937D01*
X153815501Y-82815066D01*
X153818302Y-82829147D01*
X153825294Y-82864301D01*
X153830266Y-82889301D01*
X153837161Y-82899620D01*
X153837162Y-82899622D01*
X153874417Y-82955377D01*
X153886516Y-82973484D01*
X153970699Y-83029734D01*
X154044933Y-83044500D01*
X154919858Y-83044500D01*
X155795066Y-83044499D01*
X155831940Y-83037165D01*
X155857126Y-83032156D01*
X155857128Y-83032155D01*
X155869301Y-83029734D01*
X155879621Y-83022839D01*
X155879622Y-83022838D01*
X155943168Y-82980377D01*
X155953484Y-82973484D01*
X156009734Y-82889301D01*
X156024500Y-82815067D01*
X156024499Y-81064934D01*
X156017388Y-81029182D01*
X156012156Y-81002874D01*
X156012155Y-81002872D01*
X156009734Y-80990699D01*
X156001165Y-80977874D01*
X155960377Y-80916832D01*
X155953484Y-80906516D01*
X155869301Y-80850266D01*
X155795067Y-80835500D01*
X154920142Y-80835500D01*
X154044934Y-80835501D01*
X154009317Y-80842585D01*
X153982874Y-80847844D01*
X153982872Y-80847845D01*
X153970699Y-80850266D01*
X153960379Y-80857161D01*
X153960378Y-80857162D01*
X153908492Y-80891832D01*
X153886516Y-80906516D01*
X153879623Y-80916832D01*
X153838836Y-80977874D01*
X153830266Y-80990699D01*
X153815500Y-81064933D01*
X153815500Y-81232852D01*
X153795498Y-81300973D01*
X153741842Y-81347466D01*
X153671568Y-81357570D01*
X153606988Y-81328076D01*
X153581235Y-81295868D01*
X153580912Y-81296077D01*
X153578836Y-81292868D01*
X153578453Y-81292389D01*
X153578099Y-81291729D01*
X153462426Y-81112926D01*
X153456136Y-81104757D01*
X153312806Y-80947240D01*
X153305273Y-80940215D01*
X153138139Y-80808222D01*
X153129552Y-80802517D01*
X152943117Y-80699599D01*
X152933705Y-80695369D01*
X152732959Y-80624280D01*
X152722988Y-80621646D01*
X152651837Y-80608972D01*
X152638540Y-80610432D01*
X152634000Y-80624989D01*
X152634000Y-83258517D01*
X152126000Y-83258517D01*
X152126000Y-80623102D01*
X152122082Y-80609758D01*
X152107806Y-80607771D01*
X152069324Y-80613660D01*
X152059288Y-80616051D01*
X151856868Y-80682212D01*
X151847359Y-80686209D01*
X151658463Y-80784542D01*
X151649738Y-80790036D01*
X151479433Y-80917905D01*
X151471726Y-80924748D01*
X151324590Y-81078717D01*
X151318104Y-81086727D01*
X151198098Y-81262649D01*
X151193000Y-81271623D01*
X151103338Y-81464783D01*
X151099777Y-81474464D01*
X151095291Y-81490640D01*
X151057813Y-81550939D01*
X150993684Y-81581403D01*
X150923266Y-81572360D01*
X150868915Y-81526682D01*
X150860867Y-81512698D01*
X150788331Y-81365609D01*
X150785776Y-81360428D01*
X150770977Y-81340609D01*
X150716300Y-81267389D01*
X150664320Y-81197779D01*
X150515258Y-81059987D01*
X150510375Y-81056906D01*
X150510371Y-81056903D01*
X150349466Y-80955380D01*
X150343581Y-80951667D01*
X150155039Y-80876446D01*
X150149379Y-80875320D01*
X150149375Y-80875319D01*
X149961613Y-80837971D01*
X149961610Y-80837971D01*
X149955946Y-80836844D01*
X149950171Y-80836768D01*
X149950167Y-80836768D01*
X149848793Y-80835441D01*
X149752971Y-80834187D01*
X149747274Y-80835166D01*
X149747273Y-80835166D01*
X149652530Y-80851446D01*
X149552910Y-80868564D01*
X149362463Y-80938824D01*
X149188010Y-81042612D01*
X149183670Y-81046418D01*
X149183666Y-81046421D01*
X149044058Y-81168855D01*
X149035392Y-81176455D01*
X148909720Y-81335869D01*
X148907031Y-81340980D01*
X148907029Y-81340983D01*
X148894073Y-81365609D01*
X148815203Y-81515515D01*
X148755007Y-81709378D01*
X148731148Y-81910964D01*
X148406564Y-81910964D01*
X148390658Y-81737859D01*
X148385230Y-81718613D01*
X148337125Y-81548046D01*
X148337124Y-81548044D01*
X148335557Y-81542487D01*
X148327397Y-81525939D01*
X148248331Y-81365609D01*
X148245776Y-81360428D01*
X148230977Y-81340609D01*
X148176300Y-81267389D01*
X148124320Y-81197779D01*
X147975258Y-81059987D01*
X147970375Y-81056906D01*
X147970371Y-81056903D01*
X147809466Y-80955380D01*
X147803581Y-80951667D01*
X147615039Y-80876446D01*
X147609379Y-80875320D01*
X147609375Y-80875319D01*
X147421613Y-80837971D01*
X147421610Y-80837971D01*
X147415946Y-80836844D01*
X147410171Y-80836768D01*
X147410167Y-80836768D01*
X147308793Y-80835441D01*
X147212971Y-80834187D01*
X147207274Y-80835166D01*
X147207273Y-80835166D01*
X147112530Y-80851446D01*
X147012910Y-80868564D01*
X146822463Y-80938824D01*
X146648010Y-81042612D01*
X146643670Y-81046418D01*
X146643666Y-81046421D01*
X146504058Y-81168855D01*
X146495392Y-81176455D01*
X146369720Y-81335869D01*
X146367031Y-81340980D01*
X146367029Y-81340983D01*
X146354073Y-81365609D01*
X146275203Y-81515515D01*
X146215007Y-81709378D01*
X146191148Y-81910964D01*
X145866564Y-81910964D01*
X145850658Y-81737859D01*
X145845230Y-81718613D01*
X145797125Y-81548046D01*
X145797124Y-81548044D01*
X145795557Y-81542487D01*
X145787397Y-81525939D01*
X145708331Y-81365609D01*
X145705776Y-81360428D01*
X145690977Y-81340609D01*
X145636300Y-81267389D01*
X145584320Y-81197779D01*
X145435258Y-81059987D01*
X145430375Y-81056906D01*
X145430371Y-81056903D01*
X145269466Y-80955380D01*
X145263581Y-80951667D01*
X145075039Y-80876446D01*
X145069379Y-80875320D01*
X145069375Y-80875319D01*
X144881613Y-80837971D01*
X144881610Y-80837971D01*
X144875946Y-80836844D01*
X144870171Y-80836768D01*
X144870167Y-80836768D01*
X144768793Y-80835441D01*
X144672971Y-80834187D01*
X144667274Y-80835166D01*
X144667273Y-80835166D01*
X144572530Y-80851446D01*
X144472910Y-80868564D01*
X144282463Y-80938824D01*
X144108010Y-81042612D01*
X144103670Y-81046418D01*
X144103666Y-81046421D01*
X143964058Y-81168855D01*
X143955392Y-81176455D01*
X143829720Y-81335869D01*
X143827031Y-81340980D01*
X143827029Y-81340983D01*
X143814073Y-81365609D01*
X143735203Y-81515515D01*
X143675007Y-81709378D01*
X143651148Y-81910964D01*
X143326564Y-81910964D01*
X143310658Y-81737859D01*
X143305230Y-81718613D01*
X143257125Y-81548046D01*
X143257124Y-81548044D01*
X143255557Y-81542487D01*
X143247397Y-81525939D01*
X143168331Y-81365609D01*
X143165776Y-81360428D01*
X143150977Y-81340609D01*
X143096300Y-81267389D01*
X143044320Y-81197779D01*
X142895258Y-81059987D01*
X142890375Y-81056906D01*
X142890371Y-81056903D01*
X142729466Y-80955380D01*
X142723581Y-80951667D01*
X142535039Y-80876446D01*
X142529379Y-80875320D01*
X142529375Y-80875319D01*
X142341613Y-80837971D01*
X142341610Y-80837971D01*
X142335946Y-80836844D01*
X142330171Y-80836768D01*
X142330167Y-80836768D01*
X142228793Y-80835441D01*
X142132971Y-80834187D01*
X142127274Y-80835166D01*
X142127273Y-80835166D01*
X142032530Y-80851446D01*
X141932910Y-80868564D01*
X141742463Y-80938824D01*
X141568010Y-81042612D01*
X141563670Y-81046418D01*
X141563666Y-81046421D01*
X141424058Y-81168855D01*
X141415392Y-81176455D01*
X141289720Y-81335869D01*
X141287031Y-81340980D01*
X141287029Y-81340983D01*
X141274073Y-81365609D01*
X141195203Y-81515515D01*
X141135007Y-81709378D01*
X141111148Y-81910964D01*
X140786564Y-81910964D01*
X140770658Y-81737859D01*
X140765230Y-81718613D01*
X140717125Y-81548046D01*
X140717124Y-81548044D01*
X140715557Y-81542487D01*
X140707397Y-81525939D01*
X140628331Y-81365609D01*
X140625776Y-81360428D01*
X140610977Y-81340609D01*
X140556300Y-81267389D01*
X140504320Y-81197779D01*
X140355258Y-81059987D01*
X140350375Y-81056906D01*
X140350371Y-81056903D01*
X140189466Y-80955380D01*
X140183581Y-80951667D01*
X139995039Y-80876446D01*
X139989379Y-80875320D01*
X139989375Y-80875319D01*
X139801613Y-80837971D01*
X139801610Y-80837971D01*
X139795946Y-80836844D01*
X139790171Y-80836768D01*
X139790167Y-80836768D01*
X139688793Y-80835441D01*
X139592971Y-80834187D01*
X139587274Y-80835166D01*
X139587273Y-80835166D01*
X139492530Y-80851446D01*
X139392910Y-80868564D01*
X139202463Y-80938824D01*
X139028010Y-81042612D01*
X139023670Y-81046418D01*
X139023666Y-81046421D01*
X138884058Y-81168855D01*
X138875392Y-81176455D01*
X138749720Y-81335869D01*
X138747031Y-81340980D01*
X138747029Y-81340983D01*
X138734073Y-81365609D01*
X138655203Y-81515515D01*
X138595007Y-81709378D01*
X138571148Y-81910964D01*
X133799499Y-81910964D01*
X133799499Y-81039934D01*
X133792128Y-81002872D01*
X133787156Y-80977874D01*
X133787155Y-80977872D01*
X133784734Y-80965699D01*
X133766777Y-80938824D01*
X133735377Y-80891832D01*
X133728484Y-80881516D01*
X133663315Y-80837971D01*
X133654620Y-80832161D01*
X133644301Y-80825266D01*
X133570067Y-80810500D01*
X132695142Y-80810500D01*
X131819934Y-80810501D01*
X131784182Y-80817612D01*
X131757874Y-80822844D01*
X131757872Y-80822845D01*
X131745699Y-80825266D01*
X131735379Y-80832161D01*
X131735378Y-80832162D01*
X131697965Y-80857161D01*
X131661516Y-80881516D01*
X131605266Y-80965699D01*
X131590500Y-81039933D01*
X131590500Y-81207852D01*
X131570498Y-81275973D01*
X131516842Y-81322466D01*
X131446568Y-81332570D01*
X131381988Y-81303076D01*
X131356235Y-81270868D01*
X131355912Y-81271077D01*
X131353836Y-81267868D01*
X131353453Y-81267389D01*
X131353099Y-81266729D01*
X131237426Y-81087926D01*
X131231136Y-81079757D01*
X131087806Y-80922240D01*
X131080273Y-80915215D01*
X130913139Y-80783222D01*
X130904552Y-80777517D01*
X130718117Y-80674599D01*
X130708705Y-80670369D01*
X130507959Y-80599280D01*
X130497988Y-80596646D01*
X130426837Y-80583972D01*
X130413540Y-80585432D01*
X130409000Y-80599989D01*
X130409000Y-83233517D01*
X129901000Y-83233517D01*
X129901000Y-80598102D01*
X129897082Y-80584758D01*
X129882806Y-80582771D01*
X129844324Y-80588660D01*
X129834288Y-80591051D01*
X129631868Y-80657212D01*
X129622359Y-80661209D01*
X129433463Y-80759542D01*
X129424738Y-80765036D01*
X129254433Y-80892905D01*
X129246726Y-80899748D01*
X129099590Y-81053717D01*
X129093104Y-81061727D01*
X128973098Y-81237649D01*
X128968000Y-81246623D01*
X128878338Y-81439783D01*
X128874777Y-81449464D01*
X128870291Y-81465640D01*
X128832813Y-81525939D01*
X128768684Y-81556403D01*
X128698266Y-81547360D01*
X128643915Y-81501682D01*
X128635867Y-81487698D01*
X128563331Y-81340609D01*
X128560776Y-81335428D01*
X128439320Y-81172779D01*
X128290258Y-81034987D01*
X128285375Y-81031906D01*
X128285371Y-81031903D01*
X128123464Y-80929748D01*
X128118581Y-80926667D01*
X127930039Y-80851446D01*
X127924379Y-80850320D01*
X127924375Y-80850319D01*
X127736613Y-80812971D01*
X127736610Y-80812971D01*
X127730946Y-80811844D01*
X127725171Y-80811768D01*
X127725167Y-80811768D01*
X127623793Y-80810441D01*
X127527971Y-80809187D01*
X127522274Y-80810166D01*
X127522273Y-80810166D01*
X127360459Y-80837971D01*
X127327910Y-80843564D01*
X127137463Y-80913824D01*
X126963010Y-81017612D01*
X126958670Y-81021418D01*
X126958666Y-81021421D01*
X126814733Y-81147648D01*
X126810392Y-81151455D01*
X126684720Y-81310869D01*
X126682031Y-81315980D01*
X126682029Y-81315983D01*
X126655920Y-81365609D01*
X126590203Y-81490515D01*
X126530007Y-81684378D01*
X126506148Y-81885964D01*
X126181564Y-81885964D01*
X126167955Y-81737859D01*
X126166187Y-81718613D01*
X126166186Y-81718610D01*
X126165658Y-81712859D01*
X126163120Y-81703861D01*
X126112125Y-81523046D01*
X126112124Y-81523044D01*
X126110557Y-81517487D01*
X126099978Y-81496033D01*
X126023331Y-81340609D01*
X126020776Y-81335428D01*
X125899320Y-81172779D01*
X125750258Y-81034987D01*
X125745375Y-81031906D01*
X125745371Y-81031903D01*
X125583464Y-80929748D01*
X125578581Y-80926667D01*
X125390039Y-80851446D01*
X125384379Y-80850320D01*
X125384375Y-80850319D01*
X125196613Y-80812971D01*
X125196610Y-80812971D01*
X125190946Y-80811844D01*
X125185171Y-80811768D01*
X125185167Y-80811768D01*
X125083793Y-80810441D01*
X124987971Y-80809187D01*
X124982274Y-80810166D01*
X124982273Y-80810166D01*
X124820459Y-80837971D01*
X124787910Y-80843564D01*
X124597463Y-80913824D01*
X124423010Y-81017612D01*
X124418670Y-81021418D01*
X124418666Y-81021421D01*
X124274733Y-81147648D01*
X124270392Y-81151455D01*
X124144720Y-81310869D01*
X124142031Y-81315980D01*
X124142029Y-81315983D01*
X124115920Y-81365609D01*
X124050203Y-81490515D01*
X123990007Y-81684378D01*
X123966148Y-81885964D01*
X123979424Y-82088522D01*
X123980845Y-82094118D01*
X123980846Y-82094123D01*
X124001119Y-82173945D01*
X124029392Y-82285269D01*
X124031809Y-82290512D01*
X124111959Y-82464371D01*
X124114377Y-82469616D01*
X124117710Y-82474332D01*
X124184103Y-82568276D01*
X124231533Y-82635389D01*
X124235675Y-82639424D01*
X124292637Y-82694913D01*
X124376938Y-82777035D01*
X124545720Y-82889812D01*
X124551023Y-82892090D01*
X124551028Y-82892093D01*
X124591934Y-82909667D01*
X124609217Y-82917092D01*
X124619237Y-82921397D01*
X124673930Y-82966665D01*
X124695500Y-83037165D01*
X124695500Y-88826080D01*
X124692951Y-88850028D01*
X124692872Y-88851693D01*
X124690680Y-88861876D01*
X124691904Y-88872217D01*
X124694627Y-88895223D01*
X124694977Y-88901154D01*
X124695072Y-88901146D01*
X124695500Y-88906325D01*
X124695500Y-88911524D01*
X124696353Y-88916651D01*
X124696702Y-88920868D01*
X124682379Y-88990404D01*
X124632735Y-89041159D01*
X124563532Y-89057017D01*
X124496741Y-89032943D01*
X124482035Y-89020341D01*
X122951405Y-87489711D01*
X122917379Y-87427399D01*
X122914500Y-87400616D01*
X122914500Y-83041488D01*
X122934502Y-82973367D01*
X122986427Y-82928802D01*
X122986165Y-82928334D01*
X122988491Y-82927032D01*
X122988493Y-82927030D01*
X123163276Y-82829147D01*
X123172910Y-82821135D01*
X123294615Y-82719913D01*
X123319345Y-82699345D01*
X123363695Y-82646020D01*
X123445453Y-82547718D01*
X123445455Y-82547715D01*
X123449147Y-82543276D01*
X123538628Y-82383496D01*
X123545510Y-82371208D01*
X123545511Y-82371206D01*
X123548334Y-82366165D01*
X123550190Y-82360698D01*
X123550192Y-82360693D01*
X123611728Y-82179414D01*
X123611729Y-82179409D01*
X123613584Y-82173945D01*
X123614412Y-82168236D01*
X123614413Y-82168231D01*
X123642179Y-81976727D01*
X123642712Y-81973053D01*
X123644232Y-81915000D01*
X123627955Y-81737859D01*
X123626187Y-81718613D01*
X123626186Y-81718610D01*
X123625658Y-81712859D01*
X123623120Y-81703861D01*
X123572125Y-81523046D01*
X123572124Y-81523044D01*
X123570557Y-81517487D01*
X123559978Y-81496033D01*
X123483331Y-81340609D01*
X123480776Y-81335428D01*
X123359320Y-81172779D01*
X123210258Y-81034987D01*
X123205375Y-81031906D01*
X123205371Y-81031903D01*
X123043464Y-80929748D01*
X123038581Y-80926667D01*
X122850039Y-80851446D01*
X122844379Y-80850320D01*
X122844375Y-80850319D01*
X122656613Y-80812971D01*
X122656610Y-80812971D01*
X122650946Y-80811844D01*
X122645171Y-80811768D01*
X122645167Y-80811768D01*
X122543793Y-80810441D01*
X122447971Y-80809187D01*
X122442274Y-80810166D01*
X122442273Y-80810166D01*
X122280459Y-80837971D01*
X122247910Y-80843564D01*
X122057463Y-80913824D01*
X121883010Y-81017612D01*
X121878670Y-81021418D01*
X121878666Y-81021421D01*
X121734733Y-81147648D01*
X121730392Y-81151455D01*
X121604720Y-81310869D01*
X121602031Y-81315980D01*
X121602029Y-81315983D01*
X121575920Y-81365609D01*
X121510203Y-81490515D01*
X121450007Y-81684378D01*
X121426148Y-81885964D01*
X121439424Y-82088522D01*
X121440845Y-82094118D01*
X121440846Y-82094123D01*
X121461119Y-82173945D01*
X121489392Y-82285269D01*
X121491809Y-82290512D01*
X121571959Y-82464371D01*
X121574377Y-82469616D01*
X121577710Y-82474332D01*
X121644103Y-82568276D01*
X121691533Y-82635389D01*
X121695675Y-82639424D01*
X121752637Y-82694913D01*
X121836938Y-82777035D01*
X122005720Y-82889812D01*
X122011023Y-82892090D01*
X122011028Y-82892093D01*
X122051934Y-82909667D01*
X122069217Y-82917092D01*
X122079237Y-82921397D01*
X122133930Y-82966665D01*
X122155500Y-83037165D01*
X122155500Y-87556080D01*
X122152951Y-87580028D01*
X122152872Y-87581693D01*
X122150680Y-87591876D01*
X122151904Y-87602217D01*
X122154627Y-87625223D01*
X122154977Y-87631154D01*
X122155072Y-87631146D01*
X122155500Y-87636324D01*
X122155500Y-87641524D01*
X122156354Y-87646653D01*
X122156354Y-87646656D01*
X122158669Y-87660565D01*
X122159506Y-87666443D01*
X122160136Y-87671761D01*
X122165530Y-87717341D01*
X122169493Y-87725593D01*
X122170996Y-87734626D01*
X122175943Y-87743795D01*
X122175944Y-87743797D01*
X122195334Y-87779732D01*
X122198031Y-87785025D01*
X122216785Y-87824082D01*
X122216788Y-87824086D01*
X122220219Y-87831232D01*
X122223814Y-87835508D01*
X122225737Y-87837431D01*
X122227509Y-87839363D01*
X122227552Y-87839442D01*
X122227428Y-87839555D01*
X122227904Y-87840095D01*
X122230990Y-87845814D01*
X122238635Y-87852881D01*
X122270586Y-87882416D01*
X122274152Y-87885846D01*
X122771063Y-88382757D01*
X122805089Y-88445069D01*
X122800024Y-88515884D01*
X122757477Y-88572720D01*
X122690957Y-88597531D01*
X122668797Y-88597162D01*
X122567824Y-88586549D01*
X122567823Y-88586549D01*
X122561696Y-88585905D01*
X122485143Y-88592872D01*
X122381418Y-88602312D01*
X122381415Y-88602313D01*
X122375279Y-88602871D01*
X122369370Y-88604610D01*
X122369360Y-88604612D01*
X122272659Y-88633073D01*
X122201663Y-88633119D01*
X122147989Y-88601295D01*
X120411405Y-86864711D01*
X120377379Y-86802399D01*
X120374500Y-86775616D01*
X120374500Y-83041488D01*
X120394502Y-82973367D01*
X120446427Y-82928802D01*
X120446165Y-82928334D01*
X120448491Y-82927032D01*
X120448493Y-82927030D01*
X120623276Y-82829147D01*
X120632910Y-82821135D01*
X120754615Y-82719913D01*
X120779345Y-82699345D01*
X120823695Y-82646020D01*
X120905453Y-82547718D01*
X120905455Y-82547715D01*
X120909147Y-82543276D01*
X120998628Y-82383496D01*
X121005510Y-82371208D01*
X121005511Y-82371206D01*
X121008334Y-82366165D01*
X121010190Y-82360698D01*
X121010192Y-82360693D01*
X121071728Y-82179414D01*
X121071729Y-82179409D01*
X121073584Y-82173945D01*
X121074412Y-82168236D01*
X121074413Y-82168231D01*
X121102179Y-81976727D01*
X121102712Y-81973053D01*
X121104232Y-81915000D01*
X121087955Y-81737859D01*
X121086187Y-81718613D01*
X121086186Y-81718610D01*
X121085658Y-81712859D01*
X121083120Y-81703861D01*
X121032125Y-81523046D01*
X121032124Y-81523044D01*
X121030557Y-81517487D01*
X121019978Y-81496033D01*
X120943331Y-81340609D01*
X120940776Y-81335428D01*
X120819320Y-81172779D01*
X120670258Y-81034987D01*
X120665375Y-81031906D01*
X120665371Y-81031903D01*
X120503464Y-80929748D01*
X120498581Y-80926667D01*
X120310039Y-80851446D01*
X120304379Y-80850320D01*
X120304375Y-80850319D01*
X120116613Y-80812971D01*
X120116610Y-80812971D01*
X120110946Y-80811844D01*
X120105171Y-80811768D01*
X120105167Y-80811768D01*
X120003793Y-80810441D01*
X119907971Y-80809187D01*
X119902274Y-80810166D01*
X119902273Y-80810166D01*
X119740459Y-80837971D01*
X119707910Y-80843564D01*
X119517463Y-80913824D01*
X119343010Y-81017612D01*
X119338670Y-81021418D01*
X119338666Y-81021421D01*
X119194733Y-81147648D01*
X119190392Y-81151455D01*
X119064720Y-81310869D01*
X119062031Y-81315980D01*
X119062029Y-81315983D01*
X119035920Y-81365609D01*
X118970203Y-81490515D01*
X118910007Y-81684378D01*
X118886148Y-81885964D01*
X118561564Y-81885964D01*
X118547955Y-81737859D01*
X118546187Y-81718613D01*
X118546186Y-81718610D01*
X118545658Y-81712859D01*
X118543120Y-81703861D01*
X118492125Y-81523046D01*
X118492124Y-81523044D01*
X118490557Y-81517487D01*
X118479978Y-81496033D01*
X118403331Y-81340609D01*
X118400776Y-81335428D01*
X118279320Y-81172779D01*
X118130258Y-81034987D01*
X118125375Y-81031906D01*
X118125371Y-81031903D01*
X117963464Y-80929748D01*
X117958581Y-80926667D01*
X117770039Y-80851446D01*
X117764379Y-80850320D01*
X117764375Y-80850319D01*
X117576613Y-80812971D01*
X117576610Y-80812971D01*
X117570946Y-80811844D01*
X117565171Y-80811768D01*
X117565167Y-80811768D01*
X117463793Y-80810441D01*
X117367971Y-80809187D01*
X117362274Y-80810166D01*
X117362273Y-80810166D01*
X117200459Y-80837971D01*
X117167910Y-80843564D01*
X116977463Y-80913824D01*
X116803010Y-81017612D01*
X116798670Y-81021418D01*
X116798666Y-81021421D01*
X116654733Y-81147648D01*
X116650392Y-81151455D01*
X116524720Y-81310869D01*
X116522031Y-81315980D01*
X116522029Y-81315983D01*
X116495920Y-81365609D01*
X116430203Y-81490515D01*
X116370007Y-81684378D01*
X116346148Y-81885964D01*
X111594499Y-81885964D01*
X111594499Y-81064934D01*
X111587388Y-81029182D01*
X111582156Y-81002874D01*
X111582155Y-81002872D01*
X111579734Y-80990699D01*
X111571165Y-80977874D01*
X111530377Y-80916832D01*
X111523484Y-80906516D01*
X111439301Y-80850266D01*
X111365067Y-80835500D01*
X110490142Y-80835500D01*
X109614934Y-80835501D01*
X109579317Y-80842585D01*
X109552874Y-80847844D01*
X109552872Y-80847845D01*
X109540699Y-80850266D01*
X109530379Y-80857161D01*
X109530378Y-80857162D01*
X109478492Y-80891832D01*
X109456516Y-80906516D01*
X109449623Y-80916832D01*
X109408836Y-80977874D01*
X109400266Y-80990699D01*
X109385500Y-81064933D01*
X109385500Y-81232852D01*
X109365498Y-81300973D01*
X109311842Y-81347466D01*
X109241568Y-81357570D01*
X109176988Y-81328076D01*
X109151235Y-81295868D01*
X109150912Y-81296077D01*
X109148836Y-81292868D01*
X109148453Y-81292389D01*
X109148099Y-81291729D01*
X109032426Y-81112926D01*
X109026136Y-81104757D01*
X108882806Y-80947240D01*
X108875273Y-80940215D01*
X108708139Y-80808222D01*
X108699552Y-80802517D01*
X108513117Y-80699599D01*
X108503705Y-80695369D01*
X108302959Y-80624280D01*
X108292988Y-80621646D01*
X108221837Y-80608972D01*
X108208540Y-80610432D01*
X108204000Y-80624989D01*
X108204000Y-83258517D01*
X107696000Y-83258517D01*
X107696000Y-80623102D01*
X107692082Y-80609758D01*
X107677806Y-80607771D01*
X107639324Y-80613660D01*
X107629288Y-80616051D01*
X107426868Y-80682212D01*
X107417359Y-80686209D01*
X107228463Y-80784542D01*
X107219738Y-80790036D01*
X107049433Y-80917905D01*
X107041726Y-80924748D01*
X106894590Y-81078717D01*
X106888104Y-81086727D01*
X106768098Y-81262649D01*
X106763000Y-81271623D01*
X106673338Y-81464783D01*
X106669777Y-81474464D01*
X106665291Y-81490640D01*
X106627813Y-81550939D01*
X106563684Y-81581403D01*
X106493266Y-81572360D01*
X106438915Y-81526682D01*
X106430867Y-81512698D01*
X106358331Y-81365609D01*
X106355776Y-81360428D01*
X106340977Y-81340609D01*
X106286300Y-81267389D01*
X106234320Y-81197779D01*
X106085258Y-81059987D01*
X106080375Y-81056906D01*
X106080371Y-81056903D01*
X105919466Y-80955380D01*
X105913581Y-80951667D01*
X105725039Y-80876446D01*
X105719379Y-80875320D01*
X105719375Y-80875319D01*
X105531613Y-80837971D01*
X105531610Y-80837971D01*
X105525946Y-80836844D01*
X105520171Y-80836768D01*
X105520167Y-80836768D01*
X105418793Y-80835441D01*
X105322971Y-80834187D01*
X105317274Y-80835166D01*
X105317273Y-80835166D01*
X105222530Y-80851446D01*
X105122910Y-80868564D01*
X104932463Y-80938824D01*
X104758010Y-81042612D01*
X104753670Y-81046418D01*
X104753666Y-81046421D01*
X104614058Y-81168855D01*
X104605392Y-81176455D01*
X104479720Y-81335869D01*
X104477031Y-81340980D01*
X104477029Y-81340983D01*
X104464073Y-81365609D01*
X104385203Y-81515515D01*
X104325007Y-81709378D01*
X104301148Y-81910964D01*
X103976564Y-81910964D01*
X103960658Y-81737859D01*
X103955230Y-81718613D01*
X103907125Y-81548046D01*
X103907124Y-81548044D01*
X103905557Y-81542487D01*
X103897397Y-81525939D01*
X103818331Y-81365609D01*
X103815776Y-81360428D01*
X103800977Y-81340609D01*
X103746300Y-81267389D01*
X103694320Y-81197779D01*
X103545258Y-81059987D01*
X103540375Y-81056906D01*
X103540371Y-81056903D01*
X103379466Y-80955380D01*
X103373581Y-80951667D01*
X103185039Y-80876446D01*
X103179379Y-80875320D01*
X103179375Y-80875319D01*
X102991613Y-80837971D01*
X102991610Y-80837971D01*
X102985946Y-80836844D01*
X102980171Y-80836768D01*
X102980167Y-80836768D01*
X102878793Y-80835441D01*
X102782971Y-80834187D01*
X102777274Y-80835166D01*
X102777273Y-80835166D01*
X102682530Y-80851446D01*
X102582910Y-80868564D01*
X102392463Y-80938824D01*
X102218010Y-81042612D01*
X102213670Y-81046418D01*
X102213666Y-81046421D01*
X102074058Y-81168855D01*
X102065392Y-81176455D01*
X101939720Y-81335869D01*
X101937031Y-81340980D01*
X101937029Y-81340983D01*
X101924073Y-81365609D01*
X101845203Y-81515515D01*
X101785007Y-81709378D01*
X101761148Y-81910964D01*
X101436564Y-81910964D01*
X101420658Y-81737859D01*
X101415230Y-81718613D01*
X101367125Y-81548046D01*
X101367124Y-81548044D01*
X101365557Y-81542487D01*
X101357397Y-81525939D01*
X101278331Y-81365609D01*
X101275776Y-81360428D01*
X101260977Y-81340609D01*
X101206300Y-81267389D01*
X101154320Y-81197779D01*
X101005258Y-81059987D01*
X101000375Y-81056906D01*
X101000371Y-81056903D01*
X100839466Y-80955380D01*
X100833581Y-80951667D01*
X100645039Y-80876446D01*
X100639379Y-80875320D01*
X100639375Y-80875319D01*
X100451613Y-80837971D01*
X100451610Y-80837971D01*
X100445946Y-80836844D01*
X100440171Y-80836768D01*
X100440167Y-80836768D01*
X100338793Y-80835441D01*
X100242971Y-80834187D01*
X100237274Y-80835166D01*
X100237273Y-80835166D01*
X100142530Y-80851446D01*
X100042910Y-80868564D01*
X99852463Y-80938824D01*
X99678010Y-81042612D01*
X99673670Y-81046418D01*
X99673666Y-81046421D01*
X99534058Y-81168855D01*
X99525392Y-81176455D01*
X99399720Y-81335869D01*
X99397031Y-81340980D01*
X99397029Y-81340983D01*
X99384073Y-81365609D01*
X99305203Y-81515515D01*
X99245007Y-81709378D01*
X99221148Y-81910964D01*
X98896564Y-81910964D01*
X98880658Y-81737859D01*
X98875230Y-81718613D01*
X98827125Y-81548046D01*
X98827124Y-81548044D01*
X98825557Y-81542487D01*
X98817397Y-81525939D01*
X98738331Y-81365609D01*
X98735776Y-81360428D01*
X98720977Y-81340609D01*
X98666300Y-81267389D01*
X98614320Y-81197779D01*
X98465258Y-81059987D01*
X98460375Y-81056906D01*
X98460371Y-81056903D01*
X98299466Y-80955380D01*
X98293581Y-80951667D01*
X98105039Y-80876446D01*
X98099379Y-80875320D01*
X98099375Y-80875319D01*
X97911613Y-80837971D01*
X97911610Y-80837971D01*
X97905946Y-80836844D01*
X97900171Y-80836768D01*
X97900167Y-80836768D01*
X97798793Y-80835441D01*
X97702971Y-80834187D01*
X97697274Y-80835166D01*
X97697273Y-80835166D01*
X97602530Y-80851446D01*
X97502910Y-80868564D01*
X97312463Y-80938824D01*
X97138010Y-81042612D01*
X97133670Y-81046418D01*
X97133666Y-81046421D01*
X96994058Y-81168855D01*
X96985392Y-81176455D01*
X96859720Y-81335869D01*
X96857031Y-81340980D01*
X96857029Y-81340983D01*
X96844073Y-81365609D01*
X96765203Y-81515515D01*
X96705007Y-81709378D01*
X96681148Y-81910964D01*
X96356564Y-81910964D01*
X96340658Y-81737859D01*
X96335230Y-81718613D01*
X96287125Y-81548046D01*
X96287124Y-81548044D01*
X96285557Y-81542487D01*
X96277397Y-81525939D01*
X96198331Y-81365609D01*
X96195776Y-81360428D01*
X96180977Y-81340609D01*
X96126300Y-81267389D01*
X96074320Y-81197779D01*
X95925258Y-81059987D01*
X95920375Y-81056906D01*
X95920371Y-81056903D01*
X95759466Y-80955380D01*
X95753581Y-80951667D01*
X95565039Y-80876446D01*
X95559379Y-80875320D01*
X95559375Y-80875319D01*
X95371613Y-80837971D01*
X95371610Y-80837971D01*
X95365946Y-80836844D01*
X95360171Y-80836768D01*
X95360167Y-80836768D01*
X95258793Y-80835441D01*
X95162971Y-80834187D01*
X95157274Y-80835166D01*
X95157273Y-80835166D01*
X95062530Y-80851446D01*
X94962910Y-80868564D01*
X94772463Y-80938824D01*
X94598010Y-81042612D01*
X94593670Y-81046418D01*
X94593666Y-81046421D01*
X94454058Y-81168855D01*
X94445392Y-81176455D01*
X94319720Y-81335869D01*
X94317031Y-81340980D01*
X94317029Y-81340983D01*
X94304073Y-81365609D01*
X94225203Y-81515515D01*
X94165007Y-81709378D01*
X94141148Y-81910964D01*
X91694000Y-81910964D01*
X91694000Y-79120000D01*
X91714002Y-79051879D01*
X91767658Y-79005386D01*
X91820000Y-78994000D01*
X159640000Y-78994000D01*
X159708121Y-79014002D01*
G37*
%TD.AperFunction*%
%TD*%
M02*
