%TF.GenerationSoftware,KiCad,Pcbnew,(6.0.0)*%
%TF.CreationDate,2022-01-08T11:13:19+00:00*%
%TF.ProjectId,Hub,4875622e-6b69-4636-9164-5f7063625858,rev?*%
%TF.SameCoordinates,Original*%
%TF.FileFunction,Soldermask,Bot*%
%TF.FilePolarity,Negative*%
%FSLAX46Y46*%
G04 Gerber Fmt 4.6, Leading zero omitted, Abs format (unit mm)*
G04 Created by KiCad (PCBNEW (6.0.0)) date 2022-01-08 11:13:19*
%MOMM*%
%LPD*%
G01*
G04 APERTURE LIST*
%ADD10R,1.700000X1.700000*%
%ADD11O,1.700000X1.700000*%
%ADD12C,1.600000*%
%ADD13C,1.400000*%
G04 APERTURE END LIST*
D10*
%TO.C,J4*%
X101600000Y-93980000D03*
D11*
X101600000Y-96520000D03*
%TD*%
D10*
%TO.C,J3*%
X154920000Y-81940000D03*
D11*
X152380000Y-81940000D03*
X149840000Y-81940000D03*
X147300000Y-81940000D03*
X144760000Y-81940000D03*
X142220000Y-81940000D03*
X139680000Y-81940000D03*
%TD*%
D10*
%TO.C,J2*%
X132695000Y-81915000D03*
D11*
X130155000Y-81915000D03*
X127615000Y-81915000D03*
X125075000Y-81915000D03*
X122535000Y-81915000D03*
X119995000Y-81915000D03*
X117455000Y-81915000D03*
%TD*%
D10*
%TO.C,J1*%
X110490000Y-81940000D03*
D11*
X107950000Y-81940000D03*
X105410000Y-81940000D03*
X102870000Y-81940000D03*
X100330000Y-81940000D03*
X97790000Y-81940000D03*
X95250000Y-81940000D03*
%TD*%
D12*
%TO.C,C2*%
X127905000Y-88265000D03*
X129905000Y-88265000D03*
%TD*%
D13*
%TO.C,K1*%
X122555000Y-97145000D03*
X122555000Y-93945000D03*
X122555000Y-91745000D03*
X122555000Y-89545000D03*
X117475000Y-89545000D03*
X117475000Y-91745000D03*
X117475000Y-93945000D03*
X117475000Y-97145000D03*
%TD*%
%TO.C,K2*%
X144780000Y-97145000D03*
X144780000Y-93945000D03*
X144780000Y-91745000D03*
X144780000Y-89545000D03*
X139700000Y-89545000D03*
X139700000Y-91745000D03*
X139700000Y-93945000D03*
X139700000Y-97145000D03*
%TD*%
D12*
%TO.C,C1*%
X105680000Y-88265000D03*
X107680000Y-88265000D03*
%TD*%
%TO.C,C3*%
X150130000Y-88265000D03*
X152130000Y-88265000D03*
%TD*%
M02*
